<?xml version="1.0" encoding="UTF-8"?>
<svg width="505px" height="361px" viewBox="0 0 505 361" version="1.1" xmlns="http://www.w3.org/2000/svg" xmlns:xlink="http://www.w3.org/1999/xlink">
    <title>undraw_data_processing_yrrv</title>
    <g id="Page-1" stroke="none" stroke-width="1" fill="none" fill-rule="evenodd">
        <g id="Importing" transform="translate(-618.000000, -245.000000)" fill-rule="nonzero">
            <g id="undraw_data_processing_yrrv" transform="translate(618.000000, 245.000000)">
                <circle id="Oval" fill="#E6E6E6" cx="23" cy="65" r="8"></circle>
                <circle id="Oval" fill="#E6E6E6" cx="48" cy="65" r="8"></circle>
                <circle id="Oval" fill="#E6E6E6" cx="72" cy="65" r="8"></circle>
                <circle id="Oval" fill="#E6E6E6" cx="96" cy="65" r="8"></circle>
                <circle id="Oval" fill="#E6E6E6" cx="120" cy="65" r="8"></circle>
                <circle id="Oval" fill="#E6E6E6" cx="144" cy="65" r="8"></circle>
                <circle id="Oval" fill="#E6E6E6" cx="168" cy="65" r="8"></circle>
                <path d="M186.718093,75 L4.28190666,75 C2.47024225,74.9978322 1.00212898,73.5029428 1,71.6582363 L1,58.3417637 C1.00212573,56.4970559 2.4702409,55.0021645 4.28190666,55 L186.718093,55 C188.529758,55.0021678 189.997871,56.4970572 190,58.3417637 L190,71.6582363 C189.997868,73.5029414 188.529756,74.9978289 186.718093,75 L186.718093,75 Z M4.28190666,56.3367043 C3.19486984,56.3379249 2.31276148,57.234913 2.31276148,58.3417757 L2.31276148,71.6582363 C2.31276148,72.7650967 3.19487214,73.6620811 4.28190666,73.6632897 L186.718093,73.6632897 C187.805127,73.6620811 188.687233,72.7650957 188.687233,71.6582363 L188.687233,58.3417637 C188.687233,57.2349019 187.805129,56.3379129 186.718093,56.3367043 L4.28190666,56.3367043 Z" id="Shape" fill="#E6E6E6"></path>
                <path d="M44.1945766,1.86990539 C45.244901,1.87108554 46.0960576,2.70756665 46.0972585,3.73978145 L46.0972585,44.2601892 C46.0960576,45.292404 45.244901,46.1288851 44.1945766,46.1300653 L3.80542337,46.1300653 C2.75509902,46.1288851 1.90394239,45.292404 1.90274154,44.2601892 L1.90274154,3.73981079 C1.90394239,2.70759598 2.75509902,1.87111487 3.80542337,1.86990539 L44.1945766,1.86990539 M44.1945766,0 L3.80542337,0 C1.70374608,0 0,1.67439966 0,3.73984012 L0,44.2601892 C0,46.3256297 1.70374608,48 3.80542337,48 L44.1945766,48 C46.2962526,48 48,46.3256283 48,44.2601892 L48,3.73981079 C48,1.67437166 46.2962526,0 44.1945766,0 L44.1945766,0 Z" id="Shape" fill="#E6E6E6"></path>
                <path d="M38.038218,13 L10.961782,13 C10.618875,13.0021823 10.3011117,12.8120698 10.1290479,12.5017703 C9.95698405,12.1914707 9.95698405,11.8085293 10.1290479,11.4982297 C10.3011117,11.1879302 10.618875,10.9978177 10.961782,11 L38.038218,11 C38.381125,10.9978177 38.6988883,11.1879302 38.8709521,11.4982297 C39.043016,11.8085293 39.043016,12.1914707 38.8709521,12.5017703 C38.6988883,12.8120698 38.381125,13.0021823 38.038218,13 L38.038218,13 Z" id="Path" fill="#247299"></path>
                <path d="M38.038218,19 L10.961782,19 C10.618875,19.0021823 10.3011117,18.8120698 10.1290479,18.5017703 C9.95698405,18.1914707 9.95698405,17.8085293 10.1290479,17.4982297 C10.3011117,17.1879302 10.618875,16.9978177 10.961782,17 L38.038218,17 C38.381125,16.9978177 38.6988883,17.1879302 38.8709521,17.4982297 C39.043016,17.8085293 39.043016,18.1914707 38.8709521,18.5017703 C38.6988883,18.8120698 38.381125,19.0021823 38.038218,19 Z" id="Path" fill="#247299"></path>
                <path d="M38.038218,26 L10.961782,26 C10.618875,26.0021823 10.3011117,25.8120698 10.1290479,25.5017703 C9.95698405,25.1914707 9.95698405,24.8085293 10.1290479,24.4982297 C10.3011117,24.1879302 10.618875,23.9978177 10.961782,24 L38.038218,24 C38.381125,23.9978177 38.6988883,24.1879302 38.8709521,24.4982297 C39.043016,24.8085293 39.043016,25.1914707 38.8709521,25.5017703 C38.6988883,25.8120698 38.381125,26.0021823 38.038218,26 Z" id="Path" fill="#247299"></path>
                <path d="M38.038218,33 L10.961782,33 C10.618875,33.0021823 10.3011117,32.8120698 10.1290479,32.5017703 C9.95698405,32.1914707 9.95698405,31.8085293 10.1290479,31.4982297 C10.3011117,31.1879302 10.618875,30.9978177 10.961782,31 L38.038218,31 C38.381125,30.9978177 38.6988883,31.1879302 38.8709521,31.4982297 C39.043016,31.8085293 39.043016,32.1914707 38.8709521,32.5017703 C38.6988883,32.8120698 38.381125,33.0021823 38.038218,33 Z" id="Path" fill="#247299"></path>
                <path d="M38.0436967,39 L10.9563033,39 C10.4281516,39 10,38.5522847 10,38 C10,37.4477153 10.4281516,37 10.9563033,37 L38.0436967,37 C38.5718484,37 39,37.4477153 39,38 C39,38.5522847 38.5718484,39 38.0436967,39 L38.0436967,39 Z" id="Path" fill="#247299"></path>
                <path d="M180.194577,1.86990539 C181.244901,1.87108554 182.096058,2.70756665 182.097258,3.73978145 L182.097258,44.2601892 C182.096058,45.292404 181.244901,46.1288851 180.194577,46.1300653 L139.805423,46.1300653 C138.755099,46.1288851 137.903942,45.292404 137.902742,44.2601892 L137.902742,3.73981079 C137.903942,2.70759598 138.755099,1.87111487 139.805423,1.86990539 L180.194577,1.86990539 M180.194577,0 L139.805423,0 C137.703746,0 136,1.67439966 136,3.73984012 L136,44.2601892 C136,46.3256297 137.703746,48 139.805423,48 L180.194577,48 C182.296254,48 184,46.3256297 184,44.2601892 L184,3.73981079 C184,1.67437032 182.296254,0 180.194577,0 L180.194577,0 Z" id="Shape" fill="#E6E6E6"></path>
                <path d="M174.049541,13 L146.962171,13 C146.619125,13.0021823 146.301233,12.8120698 146.1291,12.5017703 C145.956967,12.1914707 145.956967,11.8085293 146.1291,11.4982297 C146.301233,11.1879302 146.619125,10.9978177 146.962171,11 L174.049565,11 C174.575416,11.0033931 175,11.4501101 175,12 C175,12.5498899 174.575416,12.9966069 174.049565,13 L174.049541,13 Z" id="Path" fill="#247299"></path>
                <path d="M174.049541,19 L146.962171,19 C146.619125,19.0021823 146.301233,18.8120698 146.1291,18.5017703 C145.956967,18.1914707 145.956967,17.8085293 146.1291,17.4982297 C146.301233,17.1879302 146.619125,16.9978177 146.962171,17 L174.049565,17 C174.575416,17.0033931 175,17.4501101 175,18 C175,18.5498899 174.575416,18.9966069 174.049565,19 L174.049541,19 Z" id="Path" fill="#247299"></path>
                <path d="M174.049541,26 L146.962171,26 C146.619125,26.0021823 146.301233,25.8120698 146.1291,25.5017703 C145.956967,25.1914707 145.956967,24.8085293 146.1291,24.4982297 C146.301233,24.1879302 146.619125,23.9978177 146.962171,24 L174.049565,24 C174.575416,24.0033931 175,24.4501101 175,25 C175,25.5498899 174.575416,25.9966069 174.049565,26 L174.049541,26 Z" id="Path" fill="#247299"></path>
                <path d="M174.049541,33 L146.962171,33 C146.619125,33.0021823 146.301233,32.8120698 146.1291,32.5017703 C145.956967,32.1914707 145.956967,31.8085293 146.1291,31.4982297 C146.301233,31.1879302 146.619125,30.9978177 146.962171,31 L174.049565,31 C174.575416,31.0033931 175,31.4501101 175,32 C175,32.5498899 174.575416,32.9966069 174.049565,33 L174.049541,33 Z" id="Path" fill="#247299"></path>
                <path d="M174.043673,39 L146.956303,39 C146.428151,39 146,38.5522847 146,38 C146,37.4477153 146.428151,37 146.956303,37 L174.043697,37 C174.571849,37 175,37.4477153 175,38 C175,38.5522847 174.571849,39 174.043697,39 L174.043673,39 Z" id="Path" fill="#247299"></path>
                <path d="M316.194577,80.8699036 C317.244901,80.8710837 318.096058,81.707564 318.097258,82.7397778 L318.097258,123.260105 C318.096054,124.292317 317.2449,125.128796 316.194577,125.129979 L275.805423,125.129979 C274.7551,125.128796 273.903946,124.292317 273.902742,123.260105 L273.902742,82.7398071 C273.903942,81.7075933 274.755099,80.871113 275.805423,80.8699036 L316.194577,80.8699036 M316.194577,79 L275.805423,79 C273.703746,79 272,80.6744274 272,82.7398658 L272,123.260193 C272,125.325631 273.703746,127 275.805423,127 L316.194577,127 C318.296253,127 320,125.32563 320,123.260193 L320,82.7398071 C320,80.6743687 318.296254,79 316.194577,79 L316.194577,79 Z" id="Shape" fill="#247299"></path>
                <path d="M310.049565,91 L282.962171,91 C282.619125,91.0021823 282.301233,90.8120698 282.1291,90.5017703 C281.956967,90.1914707 281.956967,89.8085293 282.1291,89.4982297 C282.301233,89.1879302 282.619125,88.9978177 282.962171,89 L310.049565,89 C310.575416,89.0033931 311,89.4501101 311,90 C311,90.5498899 310.575416,90.9966069 310.049565,91 Z" id="Path" fill="#247299"></path>
                <path d="M310.043697,98 L282.956303,98 C282.428151,98 282,97.5522847 282,97 C282,96.4477153 282.428151,96 282.956303,96 L310.043697,96 C310.571849,96 311,96.4477153 311,97 C311,97.5522847 310.571849,98 310.043697,98 Z" id="Path" fill="#247299"></path>
                <path d="M310.049529,104 L282.961124,104 C282.618322,104.001783 282.300823,103.811581 282.128924,103.501446 C281.957025,103.191311 281.957025,102.808689 282.128924,102.498554 C282.300823,102.188419 282.618322,101.998217 282.961124,102 L310.049529,102 C310.575401,102.003387 311,102.450107 311,103 C311,103.549893 310.575401,103.996613 310.049529,104 L310.049529,104 Z" id="Path" fill="#247299"></path>
                <path d="M310.049565,111 L282.962171,111 C282.619125,111.002182 282.301233,110.81207 282.1291,110.50177 C281.956967,110.191471 281.956967,109.808529 282.1291,109.49823 C282.301233,109.18793 282.619125,108.997818 282.962171,109 L310.049565,109 C310.575416,109.003393 311,109.45011 311,110 C311,110.54989 310.575416,110.996607 310.049565,111 Z" id="Path" fill="#247299"></path>
                <path d="M310.049565,118 L282.962171,118 C282.619125,118.002182 282.301233,117.81207 282.1291,117.50177 C281.956967,117.191471 281.956967,116.808529 282.1291,116.49823 C282.301233,116.18793 282.619125,115.997818 282.962171,116 L310.049565,116 C310.575416,116.003393 311,116.45011 311,117 C311,117.54989 310.575416,117.996607 310.049565,118 Z" id="Path" fill="#247299"></path>
                <path d="M112.848319,48 L72.1512235,48 C69.8596839,47.9972677 68.0026941,46.1116955 68,43.7848816 L68,14.2155827 C68.0024937,11.8886092 69.859527,10.0027851 72.1512235,10 L112.848319,10 C115.140178,10.0025686 116.997467,11.8884445 117,14.2155827 L117,43.7848816 C116.997254,46.1118548 115.140016,47.9974712 112.848319,48 L112.848319,48 Z M72.1512235,11.8970586 C70.8908701,11.8986432 69.8696108,12.935828 69.8682994,14.2155827 L69.8682994,43.7848816 C69.86965,45.0645445 70.8909601,46.1015733 72.1512235,46.1029414 L112.848319,46.1029414 C114.108671,46.1016098 115.130131,45.0646336 115.131695,43.7848816 L115.131695,14.2155827 C115.13017,12.935739 114.108761,11.8986067 112.848319,11.8970586 L72.1512235,11.8970586 Z" id="Shape" fill="#E6E6E6"></path>
                <path d="M106.03783,24 L78.9504345,24 C78.4245833,23.9966069 78,23.5498899 78,23 C78,22.4501101 78.4245833,22.0033931 78.9504345,22 L106.03783,22 C106.380875,21.9978177 106.698767,22.1879302 106.8709,22.4982297 C107.043033,22.8085293 107.043033,23.1914707 106.8709,23.5017703 C106.698767,23.8120698 106.380875,24.0021823 106.03783,24 L106.03783,24 Z" id="Path" fill="#247299"></path>
                <path d="M106.03783,30 L78.9504345,30 C78.4245833,29.9966069 78,29.5498899 78,29 C78,28.4501101 78.4245833,28.0033931 78.9504345,28 L106.03783,28 C106.380875,27.9978177 106.698767,28.1879302 106.8709,28.4982297 C107.043033,28.8085293 107.043033,29.1914707 106.8709,29.5017703 C106.698767,29.8120698 106.380875,30.0021823 106.03783,30 L106.03783,30 Z" id="Path" fill="#247299"></path>
                <path d="M106.03783,37 L78.9504345,37 C78.4245833,36.9966069 78,36.5498899 78,36 C78,35.4501101 78.4245833,35.0033931 78.9504345,35 L106.03783,35 C106.380875,34.9978177 106.698767,35.1879302 106.8709,35.4982297 C107.043033,35.8085293 107.043033,36.1914707 106.8709,36.5017703 C106.698767,36.8120698 106.380875,37.0021823 106.03783,37 Z" id="Path" fill="#247299"></path>
                <path d="M248.460408,64.8343682 L209.021864,53.405542 C206.801946,52.7594111 205.524259,50.439674 206.16565,48.2198706 L214.349597,20.0200756 C214.996051,17.8015762 217.317595,16.5245952 219.539192,17.1655037 L258.977735,28.5943298 C261.198004,29.2403977 262.475894,31.5605031 261.834263,33.7805687 L253.650316,61.9803696 C253.003617,64.1987964 250.681933,65.4755206 248.460408,64.8343682 L248.460408,64.8343682 Z M219.014141,18.9747031 C217.792327,18.622275 216.515589,19.3246277 216.160122,20.5447419 L207.976187,48.7445428 C207.623321,49.9653181 208.326027,51.2411288 209.546939,51.5963485 L248.985476,63.0251688 C250.207222,63.3778372 251.4841,62.67574 251.839815,61.4556974 L260.023761,33.2559024 C260.376505,32.0349058 259.673734,30.7589708 258.452702,30.4035233 L219.014141,18.9747031 Z" id="Shape" fill="#E6E6E6"></path>
                <path d="M248.773909,38.9637506 L222.690185,31.7838836 C222.182606,31.6431333 221.890906,31.1388974 222.038188,30.6568368 C222.18547,30.1747761 222.716126,29.896903 223.224287,30.0357465 L249.307999,37.2156192 C249.816578,37.3556134 250.109299,37.8604337 249.96181,38.3431669 C249.81432,38.8259 249.282471,39.1037448 248.773891,38.9637506 L248.773909,38.9637506 Z" id="Path" fill="#247299"></path>
                <path d="M246.775693,44.9642526 L220.691782,37.7842065 C220.362787,37.693645 220.109682,37.4433626 220.027811,37.1276385 C219.945939,36.8119143 220.047739,36.4787143 220.294863,36.2535517 C220.541988,36.0283891 220.896892,35.9454714 221.225888,36.036033 L247.30981,43.2160733 C247.817392,43.3568271 248.109095,43.861075 247.961812,44.3431474 C247.814529,44.8252197 247.28387,45.1030995 246.775705,44.9642526 L246.775693,44.9642526 Z" id="Path" fill="#247299"></path>
                <path d="M244.774112,51.9639671 L218.69019,44.7839267 C218.182608,44.6431729 217.890905,44.138925 218.038188,43.6568526 C218.185471,43.1747803 218.716131,42.8969005 219.224296,43.0357474 L245.308218,50.2157935 C245.637213,50.306355 245.890318,50.5566374 245.972189,50.8723615 C246.054061,51.1880857 245.952261,51.5212857 245.705136,51.7464483 C245.458012,51.9716109 245.103108,52.0545286 244.774112,51.9639671 Z" id="Path" fill="#247299"></path>
                <rect id="Rectangle" fill="#E6E6E6" x="92" y="359" width="413" height="2"></rect>
                <polygon id="Path" fill="#E6E6E6" points="332 357 265 357 267.271256 327 329.728744 327"></polygon>
                <rect id="Rectangle" fill="#E6E6E6" x="262" y="353" width="75" height="7"></rect>
                <path d="M427.153675,136 L169.846314,136 C166.065199,136 163,139.051327 163,142.815329 L163,142.815329 L163,299 L434,299 L434,142.815329 C434,141.007793 433.278698,139.274288 431.994767,137.996166 C430.710836,136.718044 428.969452,136 427.153698,136 L427.153675,136 Z" id="Path" fill="#3F3D56"></path>
                <path d="M163,300 L163,325.263164 C163,327.049885 163.721306,328.763427 165.005239,330.026829 C166.289172,331.290231 168.030559,332 169.846314,332 L427.153675,332 C430.93479,332 434,328.98382 434,325.263164 L434,325.263164 L434,300 L163,300 Z" id="Path" fill="#E6E6E6"></path>
                <rect id="Rectangle" fill="#E6E6E6" x="177" y="150" width="244" height="137"></rect>
                <circle id="Oval" fill="#3F3D56" cx="299" cy="315" r="7"></circle>
                <circle id="Oval" fill="#FFFFFF" cx="184.5" cy="154.5" r="1.5"></circle>
                <circle id="Oval" fill="#FFFFFF" cx="189.5" cy="154.5" r="1.5"></circle>
                <circle id="Oval" fill="#FFFFFF" cx="194.5" cy="154.5" r="1.5"></circle>
                <rect id="Rectangle" fill="#FFFFFF" x="184" y="159" width="230" height="115"></rect>
                <path d="M198.811604,176 C198.363544,176 198,176.366546 198,176.818306 L198,218.1817 C198,218.633458 198.363546,219 198.811604,219 L246.188396,219 C246.636454,219 247,218.633458 247,218.1817 L247,176.818306 C247,176.366546 246.636456,176 246.188396,176 L198.811604,176 Z" id="Path" fill="#E6E6E6"></path>
                <path d="M275.8144,177 C275.364858,177 275,177.367585 275,177.820846 L275,219.17916 C275,219.632419 275.36486,220 275.8144,220 L323.186179,220 C323.635521,219.999442 324,219.63222 324,219.17916 L324,177.820846 C324,177.367784 323.635523,177.000558 323.186179,177 L275.8144,177 Z" id="Path" fill="#E6E6E6"></path>
                <path d="M350.822175,176 C350.368218,176.000553 350,176.364113 350,176.812653 L350,218.187353 C350,218.635892 350.368219,218.999451 350.822175,219 L399.177825,219 C399.631781,218.999451 400,218.635892 400,218.187353 L400,176.812653 C400,176.364113 399.631782,176.000553 399.177825,176 L350.822175,176 Z" id="Path" fill="#E6E6E6"></path>
                <path d="M199.678568,240 C198.751012,240.00155 198,240.672669 198,241.5 C198,242.327331 198.751012,242.99845 199.678568,243 L244.321432,243 C245.248988,242.99845 246,242.327331 246,241.5 C246,240.672669 245.248988,240.00155 244.321432,240 L199.678568,240 Z" id="Path" fill="#E6E6E6"></path>
                <path d="M199.645962,248 C198.736424,248.00155 198,248.672668 198,249.5 C198,250.327332 198.736424,250.99845 199.645962,251 L219.354038,251 C220.263576,250.99845 221,250.327332 221,249.5 C221,248.672668 220.263576,248.00155 219.354038,248 L199.645962,248 Z" id="Path" fill="#247299"></path>
                <path d="M276.678568,240 C275.751012,240.00155 275,240.672669 275,241.5 C275,242.327331 275.751012,242.99845 276.678568,243 L321.321432,243 C322.248988,242.99845 323,242.327331 323,241.5 C323,240.672669 322.248988,240.00155 321.321432,240 L276.678568,240 Z" id="Path" fill="#E6E6E6"></path>
                <path d="M277.645942,248 C276.736415,248.00155 276,248.672668 276,249.5 C276,250.327332 276.736415,250.99845 277.645942,251 L297.354058,251 C298.263585,250.99845 299,250.327332 299,249.5 C299,248.672668 298.263585,248.00155 297.354058,248 L277.645942,248 Z" id="Path" fill="#247299"></path>
                <path d="M352.678568,240 C351.751012,240.00155 351,240.672669 351,241.5 C351,242.327331 351.751012,242.99845 352.678568,243 L397.321432,243 C398.248988,242.99845 399,242.327331 399,241.5 C399,240.672669 398.248988,240.00155 397.321432,240 L352.678568,240 Z" id="Path" fill="#E6E6E6"></path>
                <path d="M199.678568,232 C198.751012,232.00155 198,232.672669 198,233.5 C198,234.327331 198.751012,234.99845 199.678568,235 L244.321432,235 C245.248988,234.99845 246,234.327331 246,233.5 C246,232.672669 245.248988,232.00155 244.321432,232 L199.678568,232 Z" id="Path" fill="#E6E6E6"></path>
                <path d="M276.678568,232 C275.751012,232.00155 275,232.672669 275,233.5 C275,234.327331 275.751012,234.99845 276.678568,235 L321.321432,235 C322.248988,234.99845 323,234.327331 323,233.5 C323,232.672669 322.248988,232.00155 321.321432,232 L276.678568,232 Z" id="Path" fill="#E6E6E6"></path>
                <path d="M352.678568,232 C351.751012,232.00155 351,232.672669 351,233.5 C351,234.327331 351.751012,234.99845 352.678568,235 L397.321432,235 C398.248988,234.99845 399,234.327331 399,233.5 C399,232.672669 398.248988,232.00155 397.321432,232 L352.678568,232 Z" id="Path" fill="#E6E6E6"></path>
                <path d="M352.645981,248 C351.736432,248.00155 351,248.672668 351,249.5 C351,250.327332 351.736432,250.99845 352.645981,251 L372.354019,251 C373.263568,250.99845 374,250.327332 374,249.5 C374,248.672668 373.263568,248.00155 372.354019,248 L352.645981,248 Z" id="Path" fill="#247299"></path>
            </g>
        </g>
    </g>
</svg>