<?xml version="1.0" encoding="UTF-8"?>
<svg width="490px" height="361px" viewBox="0 0 490 361" version="1.1" xmlns="http://www.w3.org/2000/svg" xmlns:xlink="http://www.w3.org/1999/xlink">
    <title>undraw_feeling_blue_4b7q</title>
    <defs>
        <linearGradient x1="49.9904777%" y1="100.001574%" x2="49.9904777%" y2="0.00230103318%" id="linearGradient-1">
            <stop stop-color="#808080" stop-opacity="0.25" offset="0%"></stop>
            <stop stop-color="#808080" stop-opacity="0.12" offset="54%"></stop>
            <stop stop-color="#808080" stop-opacity="0.1" offset="100%"></stop>
        </linearGradient>
    </defs>
    <g id="Page-1" stroke="none" stroke-width="1" fill="none" fill-rule="evenodd">
        <g id="Results-Unlucky" transform="translate(-631.000000, -217.000000)" fill-rule="nonzero">
            <g id="undraw_feeling_blue_4b7q" transform="translate(631.000000, 217.000000)">
                <path d="M5.71428571,173 C13.4457927,202.906094 29.7990205,228.758181 55.6419276,241.289962 C109.366331,267.333612 230.528883,253.901931 320.956802,238.483342 C367.733087,230.508977 408.847612,208.501514 438.714286,177.530686 L5.71428571,173 Z" id="Path" fill="#247299" opacity="0.1"></path>
                <path d="M479.10292,32.4937577 L429.520844,32.4937577 C427.167842,32.4937577 425.237401,30.7495017 425.237401,28.6181277 C425.237401,26.4867536 427.167842,24.7380479 429.520844,24.7380479 L438.096626,24.7380479 C435.739176,24.7380479 433.813183,22.9937919 433.813183,20.8579682 C433.813183,18.7221445 435.739176,16.9823381 438.096626,16.9823381 L431.976151,16.9823381 C429.618701,16.9823381 427.68826,15.2380821 427.68826,13.1022584 C427.68826,10.9664347 429.618701,9.2266283 431.976151,9.2266283 L457.85473,9.2266283 C452.112336,6.81047774 445.400274,5.09291952 437.665168,4.18964408 C367.097336,-4.01102901 341.903752,1.41307326 333.016609,6.98846305 C321.939222,14.0244261 309.6343,18.9065145 296.747457,21.3785752 C253.21024,29.5080542 171.78924,39.2883469 97.992145,18.2638323 C61.3137747,7.79384657 34.051862,25.4633381 17.7142857,55 L487.714286,55 C487.100459,46.4166585 485.263427,38.487413 481.891828,31.5504356 C481.093341,32.1671622 480.111695,32.499195 479.10292,32.4937577 L479.10292,32.4937577 Z" id="Path" fill="#247299" opacity="0.1"></path>
                <path d="M1.78006911,111 C-0.122117976,128.234643 0.524491708,145.653122 3.69934201,162.701692 L438.503509,177 C450.472476,164.665532 460.641734,150.724451 468.714286,135.583907 L1.78006911,111 Z M173.750475,147.882483 L165.189274,147.882483 C167.543937,147.882483 169.472096,149.61735 169.472096,151.731857 C169.472096,153.846365 167.543937,155.576818 165.189274,155.576818 L115.665813,155.576818 C113.315592,155.576818 111.387434,153.846365 111.387434,151.731857 C111.387434,149.61735 113.315592,147.882483 115.665813,147.882483 L124.231457,147.882483 C121.876794,147.882483 119.953078,146.15203 119.953078,144.037523 C119.953078,141.923015 121.876794,140.188148 124.231457,140.188148 L118.113775,140.188148 C115.759111,140.188148 113.830953,138.457695 113.830953,136.343188 C113.830953,134.22868 115.759111,132.493813 118.113775,132.493813 L167.637235,132.493813 C169.991899,132.493813 171.915615,134.224266 171.915615,136.343188 C171.915615,138.46211 169.991899,140.188148 167.637235,140.188148 L173.750475,140.188148 C176.105138,140.188148 178.028854,141.918601 178.028854,144.037523 C178.028854,146.156444 176.105138,147.882483 173.750475,147.882483 Z" id="Shape" fill="#247299" opacity="0.1"></path>
                <path d="M488.493489,55 L13.099919,65.480013 C7.31589271,78.9613233 3.48063836,94.2041677 1.71428571,110 L480.164491,110 C483.278229,100.75849 485.588586,91.2643336 487.069729,81.6236925 C488.497938,72.3433066 489.067442,63.3661721 488.493489,55 Z M98.2363368,89.3610638 L89.6626301,89.3610638 C92.0207331,89.3610638 93.951708,91.1136787 93.951708,93.2498176 C93.951708,95.3859564 92.0207331,97.1385713 89.6626301,97.1385713 L40.0668293,97.1385713 C37.7131755,97.1385713 35.7822006,95.3859564 35.7822006,93.2498176 C35.7822006,91.1136787 37.7131755,89.3610638 40.0668293,89.3610638 L48.6449852,89.3610638 C46.2868822,89.3610638 44.3603565,87.6129085 44.3603565,85.4767696 C44.3603565,83.3406308 46.2868822,81.5880159 48.6449852,81.5880159 L42.5183666,81.5880159 C40.1602635,81.5880159 38.2292886,79.8398605 38.2292886,77.7037217 C38.2292886,75.5675829 40.1602635,73.814968 42.5183666,73.814968 L92.1141674,73.814968 C94.4722704,73.814968 96.3987961,75.5631233 96.3987961,77.7037217 C96.3987961,79.8443201 94.4722704,81.5880159 92.1141674,81.5880159 L98.2363368,81.5880159 C100.59444,81.5880159 102.520965,83.3406308 102.520965,85.4767696 C102.520965,87.6129085 100.59444,89.3610638 98.2363368,89.3610638 Z" id="Shape" fill="#247299" opacity="0.1"></path>
                <ellipse id="Oval" fill="#247299" opacity="0.1" cx="243.214286" cy="328.5" rx="198.5" ry="18.5"></ellipse>
                <path d="M444.714286,177.731283 C444.712085,177.700151 444.712085,177.668901 444.714286,177.637769 C444.714286,177.588785 444.714286,177.544255 444.714286,177.499724 L444.714286,177.499724 C444.625611,176.989718 444.434388,176.503306 444.152335,176.070296 C443.139905,174.439255 441.729309,173.096307 440.054965,172.169425 C437.134594,170.557422 433.121295,169.867199 431.953146,166.790143 C431.594737,165.837191 431.585887,164.79963 431.408895,163.802147 C430.778638,160.639126 428.52046,158.054245 425.48408,157.020155 C424.094691,156.552585 422.594682,156.423446 421.245116,155.84455 C418.227399,154.553166 416.634469,151.369236 415.284903,148.425772 C413.53858,144.625837 411.792257,140.824418 410.045933,137.021515 C408.718492,137.693925 407.001667,137.377759 405.758297,136.536132 C404.560229,135.638464 403.606102,134.451592 402.983944,133.08502 C401.183048,129.567112 400.408707,125.581633 398.293649,122.232941 C396.178592,118.884249 391.952903,116.239138 388.218367,117.695285 C387.489229,118.061914 386.735111,118.375903 385.961716,118.634878 C382.762582,119.387443 379.222737,115.709225 376.483782,117.494898 C376.028818,117.788558 375.65813,118.196921 375.408555,118.679408 C375.406092,118.649773 375.406092,118.619983 375.408555,118.590347 C375.052174,119.314691 374.853071,120.107077 374.82448,120.914839 L374.82448,120.914839 C374.82448,121.079602 374.82448,121.239911 374.82448,121.395768 C374.82448,121.422486 374.82448,121.449205 374.82448,121.475923 C374.82448,122.117162 374.864304,122.767307 374.873153,123.417452 C374.883053,123.963441 374.84157,124.509148 374.749259,125.047268 L374.749259,125.002737 C374.697481,125.305568 374.620513,125.603486 374.519169,125.893347 C373.806775,127.817064 371.833312,129.077276 370.908527,130.885214 L370.908527,130.796153 C370.804304,130.992814 370.714105,131.196684 370.638614,131.406221 C370.474189,131.880139 370.388962,132.37821 370.3864,132.88018 C370.306754,136.277856 373.886421,139.475144 374.302353,143.122191 C374.598815,145.704959 375.187314,146.533226 377.368744,147.993826 L377.846623,148.314445 C377.656356,148.314445 377.461664,148.341164 377.244849,148.345617 C377.16017,148.347189 377.075784,148.356129 376.992635,148.372335 C376.213137,148.156382 375.378497,148.303458 374.718285,148.773109 C373.045708,150.109024 369.089932,149.08037 367.333284,148.773109 C365.576636,148.465849 359.558901,149.294116 358.718188,152.651714 C357.877475,156.009313 356.434988,162.938256 356.434988,162.938256 C356.434988,162.938256 356.434988,167.333415 355.899586,168.152776 C355.878977,168.210338 355.878977,168.273335 355.899586,168.330898 C355.899586,169.564392 355.943834,176.978718 354.757987,178.889075 C354.465949,179.33438 354.488073,180.318504 354.704889,181.529733 C353.457094,183.14619 352.28452,185.034282 352.492486,186.27223 C352.873019,188.806014 357.979245,196.772518 365.297874,192.506497 C365.297874,192.506497 369.461616,184.842801 364.222646,180.768262 L364.448311,179.877652 C366.032391,181.836993 367.204965,183.244157 367.204965,183.244157 C367.204965,183.244157 367.266912,183.408919 367.364258,183.689461 L367.204965,183.689461 C367.888748,185.562065 368.302972,187.523441 368.435061,189.514049 C368.415082,190.243882 368.283754,190.966288 368.045678,191.655965 L368.182847,191.655965 C368.143024,191.807369 368.098776,191.958772 368.045678,192.10127 C367.788553,192.853252 367.308203,193.507651 366.669563,193.976003 C363.010249,196.58549 358.819958,215.221497 358.819958,215.221497 C358.819958,215.221497 350.519023,245.346369 348.859721,247.060793 C347.488031,248.467956 356.107552,252.431169 362.576618,251.959146 C363.479534,251.905082 364.371802,251.734469 365.231502,251.451498 C365.271325,251.896803 365.315573,252.342108 365.359821,252.747335 C365.49699,254.08325 365.638584,255.321197 365.72708,255.708613 C365.95717,256.679377 366.412925,266.591863 366.412925,266.591863 C366.412925,266.591863 365.479291,273.030971 365.704956,277.510737 C365.704956,277.817998 365.744779,278.111899 365.771328,278.401347 L364.966013,278.526032 C363.744767,281.286922 368.775771,304.322542 369.461616,306.259618 C369.915869,307.785951 370.171688,309.365086 370.222682,310.957584 C370.222682,310.957584 369.780202,312.596305 370.147461,313.491368 C370.376213,314.038419 370.525246,314.615856 370.589941,315.205792 C370.589941,315.205792 370.289054,316.69311 370.744809,317.663874 C371.200564,318.634639 370.669588,320.335703 370.669588,320.335703 C370.669588,320.335703 370.519144,327.046447 369.147455,330.697947 C368.387127,332.698146 368.75019,334.955006 370.098788,336.611595 C370.194126,336.738481 370.297591,336.85897 370.408524,336.972292 C370.408524,336.972292 377.974942,337.034635 379.306808,336.972292 L379.479376,336.972292 C380.014777,336.89659 381.386467,330.858257 380.165221,327.950416 C378.943974,325.042576 380.014777,321.462325 380.014777,321.462325 L380.014777,316.172103 C380.014777,316.172103 381.386467,314.898531 380.014777,312.16436 C378.643088,309.430188 378.868753,308.601921 378.868753,308.601921 C378.868753,308.601921 380.395311,304.202309 378.793531,302.78624 C377.191751,301.370171 379.098843,295.999794 379.098843,295.999794 L379.638669,278.09854 C379.356048,278.005951 379.067852,277.931583 378.775832,277.875887 C378.744858,277.581986 378.713884,277.279179 378.682911,276.958559 C378.36875,273.71674 378.098836,269.308222 378.797956,268.052463 C379.497075,266.796703 379.83336,255.833298 379.94398,248.214132 L386.917474,248.481315 C387.063493,252.043754 387.218361,255.294479 387.315707,255.708613 C387.545797,256.679377 388.005976,266.591863 388.005976,266.591863 C388.005976,266.591863 387.067918,273.030971 387.293583,277.510737 C387.293583,277.817998 387.333406,278.111899 387.359955,278.401347 L386.55464,278.526032 C385.333394,281.286922 390.364398,304.322542 391.050243,306.259618 C391.504884,307.78601 391.762167,309.365003 391.815734,310.957584 C391.815734,310.957584 391.373253,312.596305 391.736088,313.491368 C391.96484,314.038419 392.113873,314.615856 392.178568,315.205792 C392.178568,315.205792 391.877681,316.69311 392.333436,317.663874 C392.789191,318.634639 392.258215,320.335703 392.258215,320.335703 C392.258215,320.335703 392.107771,327.046447 390.736081,330.697947 C389.987709,332.701063 390.362525,334.954114 391.718388,336.602689 C391.813726,336.729575 391.917192,336.850063 392.028125,336.963386 C392.028125,336.963386 399.594542,337.025729 400.926409,336.963386 L401.098976,336.963386 C401.634378,336.887684 403.006068,330.849351 401.784821,327.94151 C400.563575,325.033669 401.634378,321.453419 401.634378,321.453419 L401.634378,316.172103 C401.634378,316.172103 403.006068,314.898531 401.634378,312.16436 C400.262688,309.430188 400.488353,308.601921 400.488353,308.601921 C400.488353,308.601921 402.014911,304.202309 400.413131,302.78624 C398.811352,301.370171 400.718443,295.999794 400.718443,295.999794 L401.267119,278.09854 C400.977419,278.004461 400.681767,277.930076 400.382158,277.875887 C400.351184,277.581986 400.32021,277.279179 400.289237,276.958559 C399.975076,273.71674 399.705163,269.308222 400.404282,268.052463 C400.966232,267.023808 401.289243,260.397673 401.435262,253.927393 C401.435262,253.482088 401.435262,253.036784 401.47066,252.591479 C404.67468,252.457236 407.865409,252.097141 411.019391,251.513841 C411.019391,251.513841 407.289279,238.239304 408.430879,236.079575 C408.922033,235.148888 408.214064,230.192646 407.245031,224.853441 C408.596507,225.954272 410.276463,226.565928 412.014972,226.590129 C413.683124,229.818589 418.758376,237.246274 421.6168,238.390708 C424.970803,239.726622 422.453088,227.881513 420.855734,226.16709 C420.099839,225.231045 419.4636,224.203274 418.961917,223.107846 C419.006165,223.054409 419.054838,223.009878 419.099086,222.960895 C419.143334,222.911911 419.178732,210.358768 418.413241,210.585874 C417.647749,210.812979 416.73624,208.720046 416.73624,208.720046 L414.373393,187.848609 L413.382237,179.111728 L413.382237,179.111728 C414.209675,179.726248 415.191982,180.118117 416.03712,180.728184 C418.338019,182.424796 419.090236,185.403885 420.099092,188.04009 C420.930955,190.208724 422.099104,192.359547 424.015045,193.722179 C425.930986,195.084812 428.740737,195.445509 430.652253,194.065064 C432.422176,192.769227 432.944303,190.431377 433.333686,188.298367 C436.546094,189.433894 440.444348,186.396915 440.028417,183.079394 C439.926646,182.260033 439.625759,181.36497 440.050541,180.648029 C440.900103,179.23196 443.590385,180.055774 444.475346,178.657517 C444.624165,178.41567 444.700946,178.135946 444.696586,177.851515 C444.709861,177.789172 444.714286,177.762454 444.714286,177.731283 Z M401.744998,189.211241 C401.696325,190.008337 402.784827,196.411821 403.669788,201.47939 C402.94412,198.322178 401.488359,194.951221 398.621085,192.640089 C398.621085,192.640089 398.621085,192.479779 398.585687,192.194784 L398.621085,192.194784 C398.621085,192.194784 398.501615,190.921212 398.483916,189.108821 C398.489052,187.502285 398.607343,185.898136 398.837901,184.308435 L398.837901,184.268358 L398.780378,184.268358 C398.780378,184.134766 398.815777,183.996722 398.837901,183.86313 C399.013754,182.521601 399.375689,181.211521 399.913128,179.971166 C400.150725,179.48506 400.424362,179.017653 400.731717,178.572909 C401.205172,182.879007 401.789246,188.40524 401.744998,189.211241 L401.744998,189.211241 Z M404.125543,204.048799 C404.514926,206.235245 404.793689,207.771547 404.793689,207.771547 L407.143261,224.007361 L407.143261,224.083063 C405.877766,217.229822 404.262712,210.006977 404.262712,210.006977 C404.427333,208.02165 404.381351,206.024323 404.125543,204.048799 L404.125543,204.048799 Z" id="Shape" fill="url(#linearGradient-1)"></path>
                <path d="M375.507799,144.841906 C375.064592,140.755986 370.632524,137.231659 371.962144,133.344729 C372.684571,131.226595 374.944926,129.930952 375.707242,127.826084 C376.212497,126.437579 375.986462,124.911992 375.990894,123.435047 C375.995326,121.958102 376.341027,120.308699 377.573142,119.490631 C380.232383,117.721834 383.65394,121.361133 386.756387,120.618238 C387.506448,120.362279 388.236734,120.051912 388.941397,119.68962 C392.562397,118.252473 396.657627,120.870292 398.691947,124.177941 C400.726266,127.485591 401.488582,131.430007 403.234816,134.905692 C403.831029,136.247887 404.754341,137.419924 405.92065,138.315047 C407.126172,139.146381 408.774901,139.460343 410.077929,138.797044 L415.152647,150.073122 C416.482268,152.97837 418.006899,156.126828 420.914336,157.404783 C422.217364,157.97522 423.671082,158.103458 425.018431,158.567767 C427.998577,159.61653 430.193745,162.168929 430.780119,165.267083 C430.95297,166.257609 430.957402,167.283511 431.307535,168.225395 C432.437713,171.267725 436.324637,171.948712 439.156728,173.531785 C440.795085,174.453515 442.168612,175.779762 443.145589,177.383339 C443.588796,178.148344 443.969954,179.152136 443.495723,179.903874 C442.640333,181.283536 440.03871,180.469889 439.214345,181.87166 C438.79773,182.579179 439.090247,183.463577 439.214345,184.277224 C439.617663,187.553919 435.837109,190.556451 432.725797,189.433265 C432.349071,191.542555 431.839384,193.855256 430.128605,195.133212 C428.289297,196.504029 425.563575,196.141426 423.706539,194.797141 C421.849502,193.452855 420.723757,191.325878 419.917121,189.181212 C418.937634,186.572237 418.206342,183.627191 415.977012,181.951256 C415.170376,181.349865 414.204185,180.96073 413.415277,180.354917 C411.64245,179.001788 410.756036,176.768682 410.12225,174.606329 C409.302318,171.908914 408.650804,169.136326 407.463009,166.589259 C406.275215,164.042192 404.396018,161.672005 401.820987,160.509021 C399.40551,159.425633 396.622171,159.496385 394.126917,158.616409 C389.832243,157.104088 386.65445,153.500165 382.381936,151.80212 C381.016048,151.229321 379.721964,150.499158 378.526037,149.626501 C376.376484,148.215885 375.791451,147.397817 375.507799,144.841906 Z" id="Path" fill="#3F3D56"></path>
                <g id="Group" opacity="0.1" transform="translate(371.714286, 120.000000)" fill="#000000">
                    <path d="M4.29791411,6.69860465 C4.38901382,6.52579136 4.46869377,6.34719159 4.53644172,6.16395349 C5.03558282,4.77651163 4.81472393,3.25209302 4.8191411,1.77627907 C4.81890143,1.28408281 4.8647458,0.792945843 4.95607362,0.309302326 C4.54839153,1.18236638 4.35024274,2.13862963 4.37742331,3.10186047 C4.37300613,4.29046512 4.51435583,5.53651163 4.29791411,6.69860465 Z" id="Path"></path>
                    <path d="M58.7528834,73.4327907 C56.9197546,74.7981395 54.2031902,74.4402326 52.3523926,73.0925581 C50.5015951,71.7448837 49.3752147,69.6283721 48.5933742,67.4765116 C47.6171779,64.8695349 46.8927607,61.9267442 44.6665031,60.252093 C43.8669939,59.6511628 42.8996319,59.257907 42.1177914,58.6569767 C40.3509202,57.3048837 39.4674847,55.0734884 38.831411,52.9348837 C38.0142331,50.2395349 37.3693252,47.4690698 36.1811043,44.9239535 C34.9928834,42.3788372 33.1288344,40.0104651 30.5580368,38.8483721 C28.155092,37.765814 25.3811043,37.8365116 22.8942331,36.9572093 C18.6095706,35.4460465 15.442454,31.8448837 11.1887117,30.1481395 C9.82686503,29.5740754 8.53585702,28.8445908 7.34134969,27.974186 C5.24760736,26.5293023 4.69104294,25.7118605 4.38184049,23.1623256 C3.9401227,19.335814 0.053006135,15.9997674 0.658159509,12.394186 C0.559646964,12.5892405 0.472627117,12.7898934 0.397546012,12.9951163 C-0.927607362,16.8834884 3.48957055,20.4051163 3.93128834,24.4834884 C4.21840491,27.0330233 4.81472393,27.8504651 6.89079755,29.2953488 C8.08530487,30.1657536 9.37631288,30.8952382 10.7381595,31.4693023 C14.9919018,33.1660465 18.1590184,36.7716279 22.443681,38.2783721 C24.9305521,39.162093 27.7045399,39.0869767 30.1074847,40.1695349 C32.6782822,41.3316279 34.5246626,43.7044186 35.7305521,46.2451163 C36.9364417,48.785814 37.5813497,51.5474419 38.3808589,54.2560465 C39.030184,56.3946512 39.8826994,58.6260465 41.6672393,59.9781395 C42.4667485,60.5790698 43.4341104,60.9723256 44.2159509,61.5732558 C46.4245399,63.247907 47.1666258,66.1906977 48.1428221,68.7976744 C48.9467485,70.9406977 50.0731288,73.0616279 51.9239264,74.4048837 C53.7747239,75.7481395 56.4912883,76.1104651 58.3244172,74.7451163 C59.4949693,73.8613953 60.0912883,72.5137209 60.4844172,71.0688372 C60.1349169,72.0007746 59.5358889,72.8185896 58.7528834,73.4327907 L58.7528834,73.4327907 Z" id="Path"></path>
                    <path d="M67.830184,60.1813953 C67.6611967,60.4983405 67.5875572,60.857449 67.6181595,61.2153488 C68.6164417,60.23 70.8692025,60.8088372 71.6554601,59.5406977 C71.8379939,59.2272787 71.9095782,58.8614582 71.8586503,58.5023256 C70.833865,59.4744186 68.5811043,58.8955814 67.830184,60.1813953 Z" id="Path"></path>
                    <path d="M61.3413497,67.7372093 C61.2574233,68.1790698 61.1734969,68.6518605 61.0674847,69.1113953 C63.7707975,69.9553488 66.8937423,67.785814 67.3354601,65.0462791 C66.2620859,67.1539535 63.6117791,68.5634884 61.3413497,67.7372093 Z" id="Path"></path>
                </g>
                <path d="M381.070658,146.532562 C381.070658,146.532562 382.570614,149.498357 378.142815,149.560145 C373.715017,149.621932 380.994083,168.820158 380.994083,168.820158 L388.354228,178 L397.511618,173.145276 L398.03863,159.755065 L398.714286,151.665329 C398.714286,151.665329 390.155977,148.942271 391.732508,145.340948 C393.309038,141.739626 381.070658,146.532562 381.070658,146.532562 Z" id="Path" fill="#FBBEBE"></path>
                <path d="M407.714286,225.03391 C407.714286,225.03391 413.252747,230.47402 419.714286,223.255855 L414.752747,218 L408.475824,218 L407.714286,225.03391 Z" id="Path" fill="#575A89"></path>
                <path d="M408.475824,218 L407.714286,225.03391 C407.714286,225.03391 413.252747,230.47402 419.714286,223.255855" id="Path" fill="#000000" opacity="0.1"></path>
                <path d="M417.649716,219 C417.649716,219 419.800364,224.750442 421.358804,226.488736 C422.917244,228.227031 425.366221,240.254395 422.102402,238.892806 C418.838583,237.531218 412.604823,227.396462 412.230797,225.658167 C411.856772,223.919873 411.714286,219 411.714286,219 L417.649716,219 Z" id="Path" fill="#FBBEBE"></path>
                <polygon id="Path" fill="#575A89" points="370.714286 247.928571 399.714286 249 396.350537 237.282857 381.742897 237"></polygon>
                <polygon id="Path" fill="#000000" opacity="0.1" points="374.714286 247.928571 403.714286 249 400.351057 237.282857 385.741192 237"></polygon>
                <path d="M380.500649,267.926775 C379.805195,269.185655 380.073377,273.540937 380.387013,276.761019 C380.587013,278.810563 380.805195,280.387476 380.805195,280.387476 C380.805195,280.387476 369.818831,283.700317 368.155195,280.829188 C367.732468,280.100363 367.523377,278.823815 367.450649,277.32641 C367.223377,272.909288 368.155195,266.544216 368.155195,266.544216 C368.155195,266.544216 367.700649,256.755874 367.473377,255.797358 C367.382468,255.413069 367.241558,254.193943 367.105195,252.873224 C366.905195,250.912021 366.714286,248.729963 366.714286,248.729963 L381.714286,241 C381.714286,241 381.714286,242.448816 381.687013,244.679463 C381.605195,251.685018 381.364286,266.380782 380.500649,267.926775 Z" id="Path" fill="#FBBEBE"></path>
                <path d="M380.714286,281.238536 C380.714286,281.238536 370.019595,284.857366 368.400126,281.721047 C367.988622,280.924904 367.785082,279.530449 367.714286,277.894738 C369.926675,277.52803 376.661188,276.514757 380.307206,277.277124 C380.501896,279.515973 380.714286,281.238536 380.714286,281.238536 Z" id="Path" fill="#000000" opacity="0.1"></path>
                <path d="M380.606668,336.978285 L380.442954,336.978285 C379.189251,337.027143 372.063392,336.978285 372.063392,336.978285 C371.959114,336.865821 371.861294,336.747176 371.77043,336.622956 C370.489763,334.9695 370.138634,332.747004 370.844155,330.760026 C372.136632,327.131227 372.278805,320.468806 372.278805,320.468806 C372.278805,320.468806 372.782871,318.767667 372.352045,317.803837 C371.921219,316.840007 372.205565,315.360949 372.205565,315.360949 C372.13942,314.776001 371.994413,314.203432 371.774739,313.659811 C371.417153,312.771488 371.847979,311.141416 371.847979,311.141416 C371.798679,309.561909 371.556957,307.995058 371.1285,306.477721 C370.482261,304.554502 365.743177,281.680189 366.893482,278.939713 C366.893482,278.939713 376.944648,277.163068 380.753149,278.495552 L380.249082,296.262009 C380.249082,296.262009 378.452539,301.591946 379.960429,302.999937 C381.46832,304.407929 380.03367,308.774036 380.03367,308.774036 C380.03367,308.774036 379.818257,309.586851 381.110734,312.327327 C382.403212,315.067803 381.110734,316.32478 381.110734,316.32478 L381.110734,321.579209 C381.110734,321.579209 380.10691,325.132501 381.252907,328.01955 C382.398903,330.906599 381.110734,336.885012 380.606668,336.978285 Z" id="Path" fill="#3F3D56"></path>
                <path d="M401.500649,268.683635 C400.805195,269.964264 401.073377,274.394792 401.387013,277.670506 C401.587013,279.75546 401.805195,281.359617 401.805195,281.359617 C401.805195,281.359617 390.818831,284.729693 389.155195,281.80896 C388.732468,281.067543 388.523377,279.76894 388.450649,278.245666 C388.223377,273.75223 389.155195,267.27719 389.155195,267.27719 C389.155195,267.27719 388.700649,257.319737 388.473377,256.344661 C388.350649,255.818929 388.137013,250.804255 387.968831,246.306326 C387.827922,242.468932 387.714286,239 387.714286,239 L402.714286,241.291652 C402.714286,241.291652 402.714286,247.811627 402.527922,254.511339 C402.364286,261.008847 402.05974,267.668119 401.500649,268.683635 Z" id="Path" fill="#FBBEBE"></path>
                <path d="M401.714286,281.238536 C401.714286,281.238536 391.019595,284.857366 389.400126,281.721047 C388.988622,280.924904 388.785082,279.530449 388.714286,277.894738 C390.926675,277.52803 397.661188,276.514757 401.307206,277.277124 C401.501896,279.515973 401.714286,281.238536 401.714286,281.238536 Z" id="Path" fill="#000000" opacity="0.1"></path>
                <path d="M401.617117,336.978292 L401.453433,336.978292 C400.199953,337.027135 393.075362,336.978292 393.075362,336.978292 C392.971103,336.865861 392.8733,336.747252 392.782453,336.62307 C391.502013,334.970111 391.150947,332.748284 391.856342,330.761904 C393.14859,327.116437 393.277814,320.456021 393.277814,320.456021 C393.277814,320.456021 393.781791,318.755395 393.351042,317.791855 C392.920293,316.828315 393.204587,315.349702 393.204587,315.349702 C393.138455,314.76493 392.993473,314.192534 392.773838,313.649076 C392.416316,312.761021 392.847065,311.131439 392.847065,311.131439 C392.797774,309.552408 392.556095,307.986028 392.127714,306.469148 C391.481591,304.546508 386.74335,281.679081 387.89345,278.939431 C387.89345,278.939431 397.942827,277.16332 401.75065,278.495403 L401.246673,296.256511 C401.246673,296.256511 399.450449,301.584844 400.958071,302.992411 C402.465693,304.399979 401.031299,308.764772 401.031299,308.764772 C401.031299,308.764772 400.815924,309.577342 402.108171,312.316993 C403.400419,315.056644 402.108171,316.313243 402.108171,316.313243 L402.108171,321.56609 C402.108171,321.56609 401.104526,325.118312 402.250319,328.004492 C403.396111,330.890672 402.121094,336.885046 401.617117,336.978292 Z" id="Path" fill="#3F3D56"></path>
                <circle id="Oval" fill="#000000" opacity="0.1" cx="387.214286" cy="139.5" r="10.5"></circle>
                <circle id="Oval" fill="#FBBEBE" cx="387.214286" cy="139.5" r="10.5"></circle>
                <path d="M366.714286,248.827059 L381.714286,241 C381.714286,241 381.714286,242.467015 381.687013,244.72568 C379.496104,246.013791 376.191558,247.950429 373.014286,249.779724 C371.287013,250.777115 369.600649,251.743198 368.155195,252.552739 C367.819341,252.732117 367.46796,252.881791 367.105195,253 C366.905195,251.036526 366.714286,248.827059 366.714286,248.827059 Z" id="Path" fill="#000000" opacity="0.1"></path>
                <path d="M402.714286,241.213856 C402.714286,241.213856 402.714286,247.512494 402.527696,253.984767 L402.473084,253.984767 C401.350948,254.022854 400.227398,253.9895 399.109917,253.884926 C397.148448,253.685245 395.578363,253.190383 395.014043,252.209341 C393.871749,250.299348 390.672417,247.868447 387.96914,246.058294 C387.82806,242.35117 387.714286,239 387.714286,239 L402.714286,241.213856 Z" id="Path" fill="#000000" opacity="0.1"></path>
                <path d="M399.805868,184.916015 C399.431395,187.801567 399.359377,190.717732 399.590963,193.617957 C406.378389,199.159184 405.111343,210.831224 405.111343,210.831224 C405.111343,210.831224 410.336228,234.476747 409.21693,236.617877 C408.097631,238.759007 411.751022,251.911662 411.751022,251.911662 C408.63708,252.495978 405.484225,252.854524 402.317574,252.984444 C401.213629,253.023339 400.108293,252.989277 399.008927,252.882485 C397.079257,252.678568 395.534625,252.173208 394.979453,251.171354 C392.89308,247.554042 383.86258,242.159103 383.86258,242.159103 C383.86258,242.159103 378.140726,245.554767 372.812865,248.644555 C371.111532,249.63311 369.450493,250.590634 368.026745,251.393004 C366.871272,251.999774 365.594726,252.346412 364.288288,252.408156 C357.953058,252.873619 349.513548,248.945998 350.856706,247.554042 C352.499836,245.851777 360.634898,216.004513 360.634898,216.004513 C360.634898,216.004513 364.736007,197.53228 368.317763,194.947852 C368.945676,194.478206 369.414192,193.830308 369.660921,193.090433 C370.887672,189.716934 368.837117,184.308697 368.837117,184.308697 C368.837117,184.308697 357.272525,170.198517 357.791879,169.382848 C358.311234,168.56718 358.315711,164.213992 358.315711,164.213992 C358.315711,164.213992 359.734982,157.342871 360.554308,154.018135 C361.373635,150.693399 367.270099,149.87773 368.984864,150.17474 C370.69963,150.47175 374.57688,151.504634 376.215533,150.17474 C377.854186,148.844846 380.621092,150.693399 380.621092,150.693399 L387.417472,152.546385 L393.528842,149 C393.528842,149 399.653643,149.310309 400.177475,150.121544 C400.701307,150.93278 408.760256,152.488756 408.760256,152.488756 C412.861366,155.219473 412.713618,168.22584 412.713618,168.22584 C412.713618,168.22584 402.863791,176.719432 400.849054,181.081486 C400.327224,182.306879 399.976274,183.596896 399.805868,184.916015 L399.805868,184.916015 Z" id="Path" fill="#575A89"></path>
                <path d="M409.823794,166 L411.991692,167.776306 L414.233299,188.425862 L416.47057,209.150911 C416.47057,209.150911 417.337729,211.224748 418.061807,211.00271 C418.785885,210.780671 418.712177,223.285865 418.712177,223.285865 C418.712177,223.285865 410.413462,218.059085 407.439106,225 L405.123791,208.262758 C405.123791,208.262758 402.158106,191.165814 402.231814,189.833584 C402.305523,188.501355 400.714286,174.068869 400.714286,174.068869 L409.823794,166 Z" id="Path" fill="#575A89"></path>
                <path d="M359.601421,167 L358.006659,168.986303 C358.006659,168.986303 358.154402,177.518576 356.920308,179.579917 C355.686214,181.641258 360.327103,193.704736 362.065264,192.967597 C363.803424,192.230458 367.714286,173.400309 367.714286,173.179608 C367.714286,172.958908 359.601421,167 359.601421,167 Z" id="Path" fill="#575A89"></path>
                <path d="M359.554163,180 C359.554163,180 354.363941,185.191012 354.733083,187.679012 C355.102224,190.167011 360.070072,197.982051 367.186058,193.782729 C367.186058,193.782729 373.786135,181.535802 359.554163,180 Z" id="Path" fill="#575A89"></path>
                <path d="M380.714286,336.981671 C379.413242,337.022911 372.01831,336.981671 372.01831,336.981671 C371.910094,336.88674 371.80858,336.786593 371.714286,336.68174 C373.605493,336.141864 377.691931,335.332051 380.714286,336.981671 Z" id="Path" fill="#000000" opacity="0.1"></path>
                <path d="M401.714286,336.981671 C400.413242,337.022911 393.01831,336.981671 393.01831,336.981671 C392.910094,336.88674 392.80858,336.786593 392.714286,336.68174 C394.596551,336.141864 398.682989,335.332051 401.714286,336.981671 Z" id="Path" fill="#000000" opacity="0.1"></path>
                <path d="M372.714286,207 C371.582321,217.918583 371.955204,239.586123 372.190475,249.210189 C370.503625,250.205628 368.856728,251.16982 367.445101,251.977778 C366.299466,252.588774 365.033787,252.937826 363.738472,253 C363.26793,250.089568 369.784495,220.195148 372.714286,207 Z" id="Path" fill="#000000" opacity="0.1"></path>
                <path d="M374.714286,201 C374.69185,201.151297 374.304029,203.451009 373.714286,207 C373.945055,203.969741 374.265568,201.795389 374.714286,201 Z" id="Path" fill="#000000" opacity="0.1"></path>
                <path d="M392.719477,200 C392.719477,200 398.840872,239.16 380.714286,244 C380.709967,243.9824 393.255153,242.042 392.719477,200 Z" id="Path" fill="#000000" opacity="0.1"></path>
                <path d="M401.714286,252.984462 C400.660002,253.023312 399.604389,252.989289 398.554478,252.882621 L393.714286,199 C396.801405,201.08995 400.495686,239.328943 401.714286,252.984462 Z" id="Path" fill="#000000" opacity="0.1"></path>
                <path d="M380.018592,132.687681 C380.347026,132.660639 380.677467,132.695945 380.993659,132.791862 C381.457726,133.031442 381.875609,133.356882 382.226703,133.752136 C383.385721,134.755574 384.960997,135.072028 386.398066,134.590112 C386.896698,134.359231 387.425744,134.206569 387.967792,134.137152 C388.802939,134.137152 389.524401,134.771296 389.957279,135.496031 C390.390156,136.220767 390.613153,137.08139 390.984816,137.855952 C391.356478,138.630513 391.951138,139.364308 392.768795,139.554551 C393.160863,139.570332 393.546547,139.662534 393.905644,139.826327 C394.125755,140.011562 394.294699,140.253769 394.395364,140.528414 C395.077473,142.054889 395.619663,143.857668 397.075705,144.605052 C397.61128,144.862197 398.195058,144.993665 398.785351,144.990068 C399.385562,145.035712 399.987176,144.923531 400.53435,144.663937 C401.072596,144.352537 401.517433,143.893285 401.819864,143.336765 C402.729344,141.778583 402.834284,139.848975 402.620031,138.041665 C402.35304,135.761729 401.569453,133.579495 400.333215,131.673051 C397.681882,127.74755 393.196735,125.603506 388.593059,126.06088 C387.803718,126.152843 387.021888,126.30423 386.253773,126.513839 C383.472865,127.283871 380.744426,128.724283 379.056642,131.138558 C378.648517,131.741202 378.199957,132.313345 377.714286,132.850746 C378.479473,132.773743 379.249032,132.705799 380.018592,132.687681 Z" id="Path" fill="#000000" opacity="0.1"></path>
                <path d="M380.018592,132.687681 C380.347026,132.660639 380.677467,132.695945 380.993659,132.791862 C381.457726,133.031442 381.875609,133.356882 382.226703,133.752136 C383.385721,134.755574 384.960997,135.072028 386.398066,134.590112 C386.896698,134.359231 387.425744,134.206569 387.967792,134.137152 C388.802939,134.137152 389.524401,134.771296 389.957279,135.496031 C390.390156,136.220767 390.613153,137.08139 390.984816,137.855952 C391.356478,138.630513 391.951138,139.364308 392.768795,139.554551 C393.160863,139.570332 393.546547,139.662534 393.905644,139.826327 C394.125755,140.011562 394.294699,140.253769 394.395364,140.528414 C395.077473,142.054889 395.619663,143.857668 397.075705,144.605052 C397.61128,144.862197 398.195058,144.993665 398.785351,144.990068 C399.385562,145.035712 399.987176,144.923531 400.53435,144.663937 C401.072596,144.352537 401.517433,143.893285 401.819864,143.336765 C402.729344,141.778583 402.834284,139.848975 402.620031,138.041665 C402.35304,135.761729 401.569453,133.579495 400.333215,131.673051 C397.681882,127.74755 393.196735,125.603506 388.593059,126.06088 C387.803718,126.152843 387.021888,126.30423 386.253773,126.513839 C383.472865,127.283871 380.744426,128.724283 379.056642,131.138558 C378.648517,131.741202 378.199957,132.313345 377.714286,132.850746 C378.479473,132.773743 379.249032,132.705799 380.018592,132.687681 Z" id="Path" fill="#3F3D56"></path>
                <path d="M367.639208,157 C367.639208,157 368.190343,160.913971 366.30612,161.890368 C364.421896,162.866766 367.639208,157 367.639208,157 Z" id="Path" fill="#000000" opacity="0.1"></path>
                <path d="M405.714286,190 C405.714286,190 410.054968,183.469388 410.667233,185.335277 C411.279497,187.201166 405.714286,190 405.714286,190 Z" id="Path" fill="#000000" opacity="0.1"></path>
                <path d="M405.714286,192 C405.714286,192 410.253308,186.281664 410.689287,188.519273 C411.125266,190.756883 405.714286,192 405.714286,192 Z" id="Path" fill="#000000" opacity="0.1"></path>
                <path d="M394.034315,185.692857 C392.510921,185.713462 391.024195,185.245732 389.811321,184.364286 L389.443714,184.364286 C388.185833,185.462857 386.534091,186.056727 384.830699,186.022857 C383.040936,186.062544 381.312282,185.399655 380.04733,184.188571 L379.558682,184.188571 C376.893696,186.263627 373.051178,186.196607 370.467142,184.03 L368.714286,184 C368.714286,184 370.767503,189.228571 369.539159,192.49 L399.499101,193 C399.267214,190.196122 399.339326,187.376835 399.714286,184.587143 L399.714286,184.548571 L398.069022,184.518571 C396.885436,185.303276 395.474505,185.713922 394.034315,185.692857 L394.034315,185.692857 Z" id="Path" fill="#000000" opacity="0.1"></path>
                <path d="M394.034315,186.692857 C392.510921,186.713462 391.024195,186.245732 389.811321,185.364286 L389.443714,185.364286 C388.185833,186.462857 386.534091,187.056727 384.830699,187.022857 C383.040936,187.062544 381.312282,186.399655 380.04733,185.188571 L379.558682,185.188571 C376.893696,187.263627 373.051178,187.196607 370.467142,185.03 L368.714286,185 C368.714286,185 370.767503,190.228571 369.539159,193.49 L399.499101,194 C399.267214,191.196122 399.339326,188.376835 399.714286,185.587143 L399.714286,185.548571 L398.069022,185.518571 C396.885436,186.303276 395.474505,186.713922 394.034315,186.692857 L394.034315,186.692857 Z" id="Path" fill="#000000" opacity="0.1"></path>
                <path d="M394.034315,185.692857 C392.510921,185.713462 391.024195,185.245732 389.811321,184.364286 L389.443714,184.364286 C388.185833,185.462857 386.534091,186.056727 384.830699,186.022857 C383.040936,186.062544 381.312282,185.399655 380.04733,184.188571 L379.558682,184.188571 C376.893696,186.263627 373.051178,186.196607 370.467142,184.03 L368.714286,184 C368.714286,184 370.767503,189.228571 369.539159,192.49 L399.499101,193 C399.267214,190.196122 399.339326,187.376835 399.714286,184.587143 L399.714286,184.548571 L398.069022,184.518571 C396.885436,185.303276 395.474505,185.713922 394.034315,185.692857 L394.034315,185.692857 Z" id="Path" fill="#3F3D56"></path>
                <path d="M392.714286,156 C392.714286,156 398.675971,156.532584 398.714106,157.716105 C398.75224,158.899625 392.714286,156 392.714286,156 Z" id="Path" fill="#000000" opacity="0.1"></path>
                <path d="M376.714286,152 C376.714286,152 370.7526,152.532584 370.714466,153.716105 C370.676331,154.899625 376.714286,152 376.714286,152 Z" id="Path" fill="#000000" opacity="0.1"></path>
                <path d="M401.468441,171.114995 C401.404771,171.072404 401.3411,171.038332 401.27743,171 C402.914671,172.379936 402.641797,175.395351 400.631629,177.882642 C398.621461,180.369933 395.569826,181.404885 393.714286,180.289011 C393.773408,180.335861 393.823435,180.38697 393.887106,180.433819 C395.706262,181.737092 398.889786,180.714917 400.990912,178.142445 C403.092038,175.569972 403.296693,172.422526 401.468441,171.114995 Z" id="Path" fill="#000000" opacity="0.1"></path>
                <path d="M367.210142,177.115316 C365.582964,174.295543 365.793217,171.181494 367.63522,170 C367.566659,170.030745 367.493527,170.057098 367.424966,170.092236 C365.404705,171.17271 365.139603,174.409739 366.812489,177.326141 C368.485375,180.242542 371.502054,181.718311 373.522315,180.655406 C373.58905,180.618513 373.653179,180.577431 373.714286,180.532425 C371.698595,181.410859 368.837321,179.93509 367.210142,177.115316 Z" id="Path" fill="#000000" opacity="0.1"></path>
                <path d="M368.714286,153.092971 L368.714286,153.092971 L368.150967,154 L366.714286,153.206349 L367.469744,152 C367.969327,152.24528 368.398393,152.62209 368.714286,153.092971 L368.714286,153.092971 Z" id="Path" fill="#000000" opacity="0.1"></path>
                <path d="M359.236788,185.565293 C359.236788,185.565293 360.606447,179.575037 358.769328,177.671022 C356.932209,175.767007 357.521209,165.786143 360.32597,166.003497 C363.130732,166.22085 367.337874,174.115122 366.636684,175.784395 C365.935493,177.453668 363.284994,186 363.284994,186 L359.236788,185.565293 Z" id="Path" fill="#FBBEBE"></path>
                <path d="M401.774219,142.487442 C401.471647,143.034596 401.026603,143.48612 400.488107,143.792279 C399.940678,144.047504 399.338784,144.157798 398.738293,144.112921 C398.147726,144.116458 397.563676,143.987203 397.027851,143.734385 C395.571131,142.995126 395.028689,141.222685 394.346262,139.726354 C394.259902,139.456426 394.106147,139.213964 393.900059,139.022721 C393.545752,138.858707 393.164454,138.763552 392.775804,138.742159 C391.957766,138.555118 391.367204,137.829219 390.990995,137.072146 C390.614785,136.315073 390.391684,135.47784 389.962979,134.751941 C389.534275,134.026042 388.808102,133.38921 387.972567,133.415931 C387.428711,133.489315 386.899093,133.647009 386.402109,133.883534 C384.963478,134.35352 383.38864,134.040943 382.228804,133.055208 C381.877546,132.666605 381.459469,132.346642 380.995186,132.111094 C380.678846,132.016791 380.348252,131.982079 380.019665,132.008666 C379.516593,132.008666 379.017897,132.057653 378.514825,132.097733 C378.265677,132.430383 377.998412,132.748555 377.714286,133.050754 C378.479829,132.983954 379.249747,132.917153 380.019665,132.89934 C380.348252,132.872753 380.678846,132.907465 380.995186,133.001767 C381.459469,133.237315 381.877546,133.557279 382.228804,133.945881 C383.38864,134.931617 384.963478,135.244194 386.402109,134.774208 C386.899093,134.537682 387.428711,134.379988 387.972567,134.306604 C388.808102,134.306604 389.5299,134.930076 389.962979,135.642615 C390.396058,136.355154 390.619159,137.201294 390.990995,137.96282 C391.36283,138.724346 391.957766,139.445791 392.775804,139.632833 C393.164454,139.654226 393.545752,139.749381 393.900059,139.913395 C394.120273,140.095513 394.289295,140.333644 394.390007,140.603667 C395.072434,142.104452 395.614876,143.876893 397.071596,144.611699 C397.607421,144.864516 398.191471,144.993772 398.782039,144.990235 C399.382529,145.035111 399.984424,144.924818 400.531852,144.669592 C401.070348,144.363433 401.515392,143.91191 401.817965,143.364755 C402.497125,142.105938 402.801158,140.672894 402.692871,139.240936 C402.659609,140.384516 402.343654,141.501099 401.774219,142.487442 L401.774219,142.487442 Z" id="Path" fill="#000000" opacity="0.1"></path>
                <ellipse id="Oval" fill="#575A89" cx="361.714286" cy="188.5" rx="4" ry="2.5"></ellipse>
                <circle id="Oval" fill="#247299" cx="230.714286" cy="202" r="137"></circle>
                <path d="M302.714286,270.882094 C302.714286,292.514246 268.660292,272.729933 232.150994,272.729933 C195.641697,272.729933 158.714286,291.696932 158.714286,270.064781 C158.714286,257.729569 170.48373,240.574873 187.368391,228.115287 L187.368391,228.115287 C200.08971,218.725067 215.711135,212 231.403728,212 C247.541122,212 263.349363,219.280307 275.959482,229.274628 C291.874476,241.876355 302.714286,258.808955 302.714286,270.882094 Z" id="Path" fill="#444053"></path>
                <path d="M276.714286,229 C257.217047,226.128053 221.953992,222.626639 187.714286,227.85909 C200.494965,218.618154 216.189281,212 231.955097,212 C248.163322,212 264.045326,219.164567 276.714286,229 Z" id="Path" fill="#F6F8FB"></path>
                <path d="M159.714286,105 C159.714286,105 118.378294,131.387245 118.716348,172.662564 C119.054402,213.937884 159.714286,105 159.714286,105 Z" id="Path" fill="#000000" opacity="0.05"></path>
                <path d="M368.005827,31.0488525 C368.005827,31.0488525 330.672341,28.7775785 335.075209,55.2085773 C335.075209,55.2085773 334.188428,59.8765604 338.391771,62 C338.391771,62 338.458279,60.0423142 342.218231,60.705329 C343.558213,60.9318306 344.919945,60.9979911 346.275255,60.9024416 C348.10667,60.7766319 349.847297,60.0498885 351.232361,58.83276 L351.232361,58.83276 C351.232361,58.83276 361.727416,54.4559658 365.811043,37.1235024 C365.811043,37.1235024 368.830533,33.3425256 368.710818,32.3748823 L362.410238,35.0896594 C362.410238,35.0896594 364.560682,39.6814855 362.853628,43.4983009 C362.853628,43.4983009 362.649669,35.259893 361.439212,35.4346063 C361.195348,35.4749248 358.16699,37.0249461 358.16699,37.0249461 C358.16699,37.0249461 361.869301,45.025923 359.053771,50.8362629 C359.053771,50.8362629 360.113475,40.9806363 356.987571,37.6028442 L352.553665,40.2190651 C352.553665,40.2190651 356.881157,48.4798722 353.945912,55.2220168 C353.945912,55.2220168 354.699676,44.8825684 351.622545,40.855201 L347.600993,44.022441 C347.600993,44.022441 351.666884,52.1667725 349.188331,57.7576007 C349.188331,57.7576007 348.864656,45.7202967 346.731947,44.8108912 C346.731947,44.8108912 343.21586,47.9467724 342.679357,49.2324837 C342.679357,49.2324837 345.46385,55.1413798 343.739061,58.2593417 C343.739061,58.2593417 342.679357,50.2404455 341.810312,50.1956472 C341.810312,50.1956472 338.307526,55.5087259 337.939512,59.1553078 C337.939512,59.1553078 338.094699,53.7347131 340.959002,49.6894263 C340.959002,49.6894263 337.571498,50.2762841 335.59841,52.4982799 C335.59841,52.4982799 336.14378,48.7397023 341.805878,48.4126747 C341.805878,48.4126747 344.701218,44.3808274 345.477152,44.1389166 C345.477152,44.1389166 339.823922,43.6595748 336.396513,45.1961566 C336.396513,45.1961566 339.411569,41.6526108 346.510252,43.2608699 L350.500767,39.9905938 C350.500767,39.9905938 343.060673,38.9602328 339.903732,40.0981097 C339.903732,40.0981097 343.535101,36.9622285 351.569338,39.2469419 L355.892396,36.6352009 C355.892396,36.6352009 349.547477,35.2554131 345.765356,35.7392348 C345.765356,35.7392348 349.755871,33.5665171 357.156059,35.9229078 L360.259793,34.520721 C360.259793,34.520721 355.608626,33.5978759 354.247417,33.4545214 C352.886208,33.3111668 352.815266,32.9259014 352.815266,32.9259014 C355.769013,32.4406768 358.79814,32.7958997 361.563362,33.9517825 C361.563362,33.9517825 368.116674,31.4654767 368.005827,31.0488525 Z" id="Path" fill="#247299"></path>
                <path d="M329.384926,19.0223053 C329.384926,19.0223053 312.950066,17.9922284 314.87035,29.9321625 C314.87035,29.9321625 314.485428,32.0415807 316.332187,33 C316.332187,33 316.358137,32.104281 318.018923,32.4177827 C318.609051,32.5183542 319.208381,32.5484085 319.805133,32.5073546 C320.612946,32.4476549 321.380529,32.1193478 321.993564,31.5713282 L321.993564,31.5713282 C321.993564,31.5713282 326.61695,29.5917893 328.416134,21.7632054 C328.416134,21.7632054 329.748223,20.0568607 329.713623,19.6179584 L326.936997,20.8450934 C326.936997,20.8450934 327.888489,22.9186828 327.14027,24.6429419 C327.14027,24.6429419 327.049446,20.9212295 326.517475,21.0108014 C326.409351,21.0108014 325.072938,21.7273766 325.072938,21.7273766 C325.072938,21.7273766 326.707774,25.3416027 325.475159,27.9660593 C325.475159,27.9660593 325.942255,23.514336 324.566917,21.9871351 L322.612034,23.1694842 C322.612034,23.1694842 324.519342,26.9046323 323.226178,29.9500769 C323.226178,29.9500769 323.554876,25.2789024 322.201162,23.4605928 L320.427927,24.8892646 C320.427927,24.8892646 322.218462,28.566191 321.128571,31.0921186 C321.128571,31.0921186 320.985848,25.6551043 320.043006,25.2430736 C320.043006,25.2430736 318.494669,26.6583096 318.256796,27.2405269 C318.256796,27.2405269 319.485085,29.9276839 318.723892,31.3205269 C318.723892,31.3205269 318.256796,27.6973436 317.858899,27.6839078 C317.858899,27.6839078 316.314887,30.0799561 316.154864,31.7146433 C316.229294,30.1933755 316.68706,28.7187973 317.482627,27.4375851 C316.592755,27.6119265 315.771759,28.0525768 315.121198,28.7050275 C315.121198,28.7050275 315.359071,27.00764 317.863224,26.8598464 C317.863224,26.8598464 319.139088,25.0415368 319.48076,24.929572 C319.48076,24.929572 316.989582,24.7145994 315.480169,25.4087816 C315.480169,25.4087816 316.807933,23.8054446 319.939206,24.5130626 L321.669192,23.0396049 C321.669192,23.0396049 318.39087,22.5917454 316.998232,23.0843909 C316.998232,23.0843909 318.598468,21.6691549 322.140613,22.7037103 L324.043596,21.5213612 C324.043596,21.5213612 321.24967,20.8988365 319.580235,21.1227663 C319.580235,21.1227663 321.340495,20.141954 324.601517,21.2078596 L325.96388,20.5718991 C325.96388,20.5718991 323.913848,20.1553898 323.317003,20.0926894 C322.720158,20.0299891 322.681233,19.8553239 322.681233,19.8553239 C323.979576,19.6316681 325.312412,19.7867446 326.53045,20.3031834 C326.53045,20.3031834 329.432501,19.2104062 329.384926,19.0223053 Z" id="Path" fill="#247299"></path>
                <ellipse id="Oval" fill="#247299" opacity="0.1" cx="477.714286" cy="323" rx="12" ry="2"></ellipse>
                <ellipse id="Oval" fill="#247299" opacity="0.1" cx="21.7142857" cy="356" rx="12" ry="2"></ellipse>
                <ellipse id="Oval" fill="#247299" opacity="0.1" cx="90.7142857" cy="359" rx="12" ry="2"></ellipse>
                <ellipse id="Oval" fill="#247299" cx="451.714286" cy="344" rx="18" ry="3"></ellipse>
                <path d="M458.980369,339.226011 C459.783218,338.561162 460.368842,337.665247 460.66016,336.656187 C460.874508,335.639797 460.445812,334.414803 459.487806,334.041979 C458.41169,333.624771 457.261208,334.383735 456.390691,335.147136 C455.520174,335.910538 454.518424,336.780461 453.376691,336.62068 C454.571117,335.523336 455.109343,333.869891 454.794015,332.266626 C454.744238,331.940077 454.608184,331.633316 454.400314,331.378949 C453.801013,330.730945 452.720523,331.006125 452.003112,331.516539 C449.728395,333.140987 449.094099,336.274486 449.080976,339.097297 C448.853504,338.080908 449.04598,337.020134 449.041605,335.990429 C449.037231,334.960724 448.752891,333.771238 447.886749,333.225316 C447.349236,332.934051 446.74608,332.790238 446.136967,332.808108 C445.113344,332.768163 443.975986,332.870246 443.276073,333.629209 C442.401181,334.574585 442.633028,336.154649 443.389808,337.179916 C444.146589,338.205182 445.292697,338.87094 446.346941,339.58552 C447.195381,340.097298 447.919092,340.796692 448.464177,341.631614 C448.527915,341.74914 448.58064,341.872476 448.621658,342 L455.030235,342 C456.464224,341.260321 457.792987,340.327194 458.980369,339.226011 L458.980369,339.226011 Z" id="Path" fill="#247299"></path>
                <path d="M26.3253832,302 C26.3253832,302 28.7237002,305.208222 25.2157793,310.042895 C21.7078584,314.877569 18.8158987,318.979446 19.9735563,322 C19.9735563,322 25.263833,313.000894 29.5842985,312.871314 C33.9047639,312.741734 31.060858,307.411081 26.3253832,302 Z" id="Path" fill="#247299"></path>
                <path d="M27.2559231,302 C27.4664984,302.309856 27.6330247,302.648049 27.7506317,303.004689 C31.9998249,308.050458 34.2613498,312.761331 30.1800041,312.877428 C26.372515,312.98906 21.7876266,319.865595 20.7142857,321.60259 C20.7518069,321.737232 20.7960337,321.869871 20.8467969,322 C20.8467969,322 26.1958333,313.006921 30.5642867,312.877428 C34.93274,312.747935 32.0439953,307.407457 27.2559231,302 Z" id="Path" fill="#000000" opacity="0.1"></path>
                <path d="M31.7142857,305.790239 C31.7142857,307.010915 31.4859393,308 31.2103487,308 C30.9347582,308 30.7142857,307.035039 30.7142857,305.790239 C30.7142857,304.54544 30.9898763,305.143716 31.2733408,305.143716 C31.5568054,305.143716 31.7142857,304.569564 31.7142857,305.790239 Z" id="Path" fill="#FFD037"></path>
                <path d="M32.9938849,307.008047 C31.8256451,307.713554 30.8100131,308.13919 30.7205533,307.95844 C30.6310935,307.777691 31.5099046,307.066353 32.6781444,306.360846 C33.8463843,305.655339 33.3832982,306.168435 33.472758,306.360846 C33.5622179,306.553257 34.1831742,306.30254 32.9938849,307.008047 Z" id="Path" fill="#FFD037"></path>
                <path d="M14.106506,302 C14.106506,302 11.7077135,305.208222 15.2119605,310.042895 C18.7162076,314.877569 21.6131101,318.979446 20.4552229,322 C20.4552229,322 15.1595279,313.000894 10.8425752,312.871314 C6.52562242,312.741734 9.3657229,307.411081 14.106506,302 Z" id="Path" fill="#247299"></path>
                <path d="M14.174152,302 C13.9615399,302.308697 13.7947956,302.647182 13.6792229,303.004689 C9.428136,308.050458 7.16118424,312.761331 11.2487678,312.877428 C15.0535348,312.98906 19.6448855,319.865595 20.7142857,321.60259 C20.6782407,321.737163 20.6354688,321.869803 20.5861344,322 C20.5861344,322 15.2302952,313.006921 10.864314,312.877428 C6.49833284,312.747935 9.3795269,307.407457 14.174152,302 Z" id="Path" fill="#000000" opacity="0.1"></path>
                <path d="M8.71428571,305.790239 C8.71428571,307.010915 8.93650794,308 9.21428571,308 C9.49206349,308 9.71428571,307.035039 9.71428571,305.790239 C9.71428571,304.54544 9.43650794,305.143716 9.15873016,305.143716 C8.88095238,305.143716 8.71428571,304.569564 8.71428571,305.790239 Z" id="Path" fill="#FFD037"></path>
                <path d="M7.42384194,307.008047 C8.59493597,307.713554 9.61832445,308.13919 9.70800282,307.95844 C9.79768119,307.777691 8.91672307,307.066353 7.74562904,306.360846 C6.57453501,305.655339 7.03347726,306.168435 6.94907409,306.360846 C6.86467092,306.553257 6.25274791,306.30254 7.42384194,307.008047 Z" id="Path" fill="#FFD037"></path>
                <path d="M10.7142857,321.728701 C10.7142857,321.728701 17.4313747,321.517938 19.4604954,320.038114 C21.489616,318.558291 29.7941421,316.795955 30.2970491,319.141251 C30.7999562,321.486548 40.3901751,330.934997 32.8072113,330.997778 C25.2242475,331.060558 15.187972,329.782528 13.1675975,328.522436 C11.1472231,327.262344 10.7142857,321.728701 10.7142857,321.728701 Z" id="Path" fill="#A8A8A8"></path>
                <path d="M32.9434821,330.207496 C25.3572931,330.268293 15.3167487,329.030654 13.295515,327.810386 C11.7555273,326.881072 11.1430323,323.54162 10.9374089,322 L10.7142857,322 C10.7142857,322 11.1517822,327.38047 13.1598911,328.600738 C15.1679999,329.821006 25.2216691,331.058644 32.8078582,330.997848 C34.9953406,330.997848 35.7522095,330.203154 35.7128348,329.061052 C35.4065873,329.760209 34.575344,330.194469 32.9434821,330.207496 Z" id="Path" fill="#000000" opacity="0.2"></path>
                <path d="M182.798136,184.511513 C185.408772,184.365723 197.696996,183.446807 205.50222,179.024523 C206.755766,178.291943 208.171811,177.877691 209.62498,177.818445 C212.106641,177.747759 214.961885,178.777122 213.133995,184.53802 C210.172012,193.961329 192.973835,204.564209 182.300024,203.976632 C172.035376,203.411145 159.858337,199.30253 151.8174,184.856106 C151.046977,183.466238 150.667523,181.89594 150.718887,180.310122 C150.812283,177.39433 151.879664,173.740754 157.390019,177.814027 C164.835002,183.314271 178.960011,184.356887 181.793018,184.511513 C182.127817,184.529341 182.463337,184.529341 182.798136,184.511513 L182.798136,184.511513 Z" id="Path" fill="#444053"></path>
                <path d="M280.798136,184.511513 C283.408772,184.365723 295.696996,183.446807 303.50222,179.024523 C304.755766,178.291943 306.171811,177.877691 307.62498,177.818445 C310.106641,177.747759 312.961885,178.777122 311.133995,184.53802 C308.172012,193.961329 290.973835,204.564209 280.300024,203.976632 C270.035376,203.411145 257.858337,199.30253 249.8174,184.856106 C249.046977,183.466238 248.667523,181.89594 248.718887,180.310122 C248.812283,177.39433 249.879664,173.740754 255.390019,177.814027 C262.835002,183.314271 276.960011,184.356887 279.793018,184.511513 C280.127817,184.529341 280.463337,184.529341 280.798136,184.511513 L280.798136,184.511513 Z" id="Path" fill="#444053"></path>
            </g>
        </g>
    </g>
</svg>