<?xml version="1.0" encoding="UTF-8"?>
<svg width="643px" height="273px" viewBox="0 0 643 273" version="1.1" xmlns="http://www.w3.org/2000/svg" xmlns:xlink="http://www.w3.org/1999/xlink">
    <title>undraw_Projections_re_1mrh(1)</title>
    <g id="Page-1" stroke="none" stroke-width="1" fill="none" fill-rule="evenodd">
        <g id="Results-0" transform="translate(-581.000000, -327.000000)" fill-rule="nonzero">
            <g id="undraw_Projections_re_1mrh(1)" transform="translate(581.000000, 327.000000)">
                <path d="M539.129282,263 L223.873282,263 C223.390989,263 223,262.610582 223,262.130237 L223,56.8672018 C223,56.387847 223.391985,56 223.873285,56 C224.354586,56 224.745154,56.387847 224.746571,56.8672018 L224.746571,261.260482 L539.129282,261.260482 C539.61058,261.261894 540,261.650884 540,262.130241 C540,262.609598 539.61058,263 539.129282,263 Z" id="Path" fill="#3F3D56"></path>
                <path d="M539.129275,221 L223.870725,221 C223.389423,220.999189 223,220.775569 223,220.5 C223,220.224431 223.389423,220.000811 223.870725,220 L539.129275,220 C539.610577,220.000811 540,220.224431 540,220.5 C540,220.775569 539.610577,220.999189 539.129275,221 Z" id="Path" fill="#3F3D56"></path>
                <path d="M540.129282,188 L224.873285,188 C224.390983,188 224,187.776142 224,187.5 C224,187.223858 224.390983,187 224.873285,187 L540.129282,187 C540.61058,187.000811 541,187.224431 541,187.5 C541,187.775569 540.61058,187.999189 540.129282,188 L540.129282,188 Z" id="Path" fill="#3F3D56"></path>
                <path d="M540.129275,156 L224.870725,156 C224.389423,155.999189 224,155.775569 224,155.5 C224,155.224431 224.389423,155.000811 224.870725,155 L540.129275,155 C540.610577,155.000811 541,155.224431 541,155.5 C541,155.775569 540.610577,155.999189 540.129275,156 L540.129275,156 Z" id="Path" fill="#3F3D56"></path>
                <path d="M540.126722,121 L224.873278,121 C224.39098,121 224,120.776142 224,120.5 C224,120.223858 224.39098,120 224.873278,120 L540.126722,120 C540.60902,120 541,120.223858 541,120.5 C541,120.776142 540.60902,121 540.126722,121 L540.126722,121 Z" id="Path" fill="#3F3D56"></path>
                <path d="M540.126722,88 L224.873278,88 C224.39098,88 224,87.7761424 224,87.5 C224,87.2238576 224.39098,87 224.873278,87 L540.126722,87 C540.60902,87 541,87.2238576 541,87.5 C541,87.7761424 540.60902,88 540.126722,88 L540.126722,88 Z" id="Path" fill="#3F3D56"></path>
                <path d="M540.129275,56 L224.870725,56 C224.389423,55.9991887 224,55.7755689 224,55.5 C224,55.2244311 224.389423,55.0008113 224.870725,55 L540.129275,55 C540.610577,55.0008113 541,55.2244311 541,55.5 C541,55.7755689 540.610577,55.9991887 540.129275,56 L540.129275,56 Z" id="Path" fill="#3F3D56"></path>
                <path d="M254.947334,262 L244.052666,262 C241.263438,261.99692 239.003092,259.745169 239,256.966547 L239,227.033453 C239.003092,224.254831 241.263438,222.00308 244.052666,222 L254.947334,222 C257.736562,222.00308 259.996908,224.254831 260,227.033453 L260,256.966562 C259.9969,259.745178 257.736557,261.99692 254.947334,262 L254.947334,262 Z" id="Path" fill="#3F3D56"></path>
                <path d="M300.947336,262 L290.052664,262 C287.263438,261.996885 285.003096,259.722558 285,256.916075 L285,201.083925 C285.003096,198.277442 287.263438,196.003115 290.052664,196 L300.947336,196 C303.736563,196.003111 305.996908,198.27744 306,201.083925 L306,256.91609 C305.9969,259.722569 303.736557,261.996889 300.947336,262 L300.947336,262 Z" id="Path" fill="#3F3D56"></path>
                <path d="M392.947303,261 L382.052697,261 C379.263472,260.99682 377.003142,258.708744 377,255.88528 L377,139.11472 C377.003142,136.291256 379.263472,134.00318 382.052697,134 L392.947303,134 C395.73653,134.003176 397.996862,136.291255 398,139.11472 L398,255.885295 C397.99685,258.708753 395.736522,260.99682 392.947303,261 L392.947303,261 Z" id="Path" fill="#E6E6E6"></path>
                <path d="M345.947303,261 L335.052697,261 C332.263472,260.99682 330.003142,258.70907 330,255.886009 L330,179.113991 C330.003142,176.29093 332.263472,174.00318 335.052697,174 L345.947303,174 C348.736528,174.00318 350.996858,176.29093 351,179.113991 L351,255.886024 C350.99685,258.709079 348.736522,260.99682 345.947303,261 L345.947303,261 Z" id="Path" fill="#3F3D56"></path>
                <path d="M438.947368,261 L428.052632,261 C425.263443,260.996835 423.003142,258.719387 423,255.90904 L423,109.09096 C423.003142,106.280613 425.263443,104.003165 428.052632,104 L438.947368,104 C441.736557,104.003165 443.996858,106.280613 444,109.09096 L444,255.909055 C443.99685,258.719396 441.736551,260.996835 438.947368,261 L438.947368,261 Z" id="Path" fill="#3F3D56"></path>
                <path d="M484.947368,261 L474.052632,261 C471.263443,260.99682 469.003142,258.708744 469,255.88528 L469,139.11472 C469.003142,136.291256 471.263443,134.00318 474.052632,134 L484.947368,134 C487.736559,134.003176 489.996863,136.291255 490,139.11472 L490,255.885295 C489.99685,258.708753 487.736551,260.99682 484.947368,261 L484.947368,261 Z" id="Path" fill="#3F3D56"></path>
                <path d="M530.947281,261 L520.052674,261 C517.263464,260.996819 515.00315,258.716912 515,255.903528 L515,59.0964874 C515.003142,56.2830888 517.263472,54.0031689 520.052697,54 L530.947303,54 C533.73653,54.0031647 535.996862,56.283087 536,59.0964874 L536,255.903528 C535.99685,258.716929 533.736509,260.996844 530.947281,261 Z" id="Path" fill="#E6E6E6"></path>
                <circle id="Oval" fill="#2F2E41" cx="384.5" cy="57.5" r="31.5"></circle>
                <polygon id="Rectangle" fill="#2F2E41" transform="translate(366.658258, 85.898134) rotate(-26.600990) translate(-366.658258, -85.898134) " points="358.008877 81.0707353 375.306423 81.0729134 375.307639 90.7255317 358.010093 90.7233536"></polygon>
                <ellipse id="Oval" fill="#2F2E41" transform="translate(356.408184, 88.781622) rotate(-56.601220) translate(-356.408184, -88.781622) " cx="356.408184" cy="88.7816223" rx="3.01654451" ry="8.04509229"></ellipse>
                <polygon id="Rectangle" fill="#2F2E41" transform="translate(401.973062, 85.898167) rotate(-63.399010) translate(-401.973062, -85.898167) " points="397.145664 77.2487864 406.798282 77.2500021 406.80046 94.5475479 397.147842 94.5463322"></polygon>
                <ellipse id="Oval" fill="#2F2E41" transform="translate(412.223138, 88.781571) rotate(-33.398780) translate(-412.223138, -88.781571) " cx="412.223138" cy="88.7815709" rx="8.04509229" ry="3.01654451"></ellipse>
                <circle id="Oval" fill="#FFFFFF" cx="382.5" cy="49.5" r="10.5"></circle>
                <ellipse id="Oval" fill="#3F3D56" transform="translate(382.165316, 53.492441) rotate(-45.000000) translate(-382.165316, -53.492441) " cx="382.165316" cy="53.4924413" rx="3.60495343" ry="3.63048786"></ellipse>
                <path d="M409.983799,22.6472863 C410.461075,10.6879724 400.33439,0.558341892 387.365143,0.0221577489 C374.395897,-0.514026394 363.495379,8.74621276 363.018088,20.7055343 C362.540797,32.6648558 371.55607,35.3820768 384.525309,35.9183071 C397.494548,36.4545373 409.506478,34.6066001 409.983799,22.6472863 Z" id="Path" fill="#247299"></path>
                <ellipse id="Oval" fill="#2F2E41" transform="translate(417.355277, 61.420619) rotate(-40.645160) translate(-417.355277, -61.420619) " cx="417.355277" cy="61.4206188" rx="4.98786515" ry="15.8876651"></ellipse>
                <ellipse id="Oval" fill="#2F2E41" transform="translate(351.364958, 61.420573) rotate(-49.354840) translate(-351.364958, -61.420573) " cx="351.364958" cy="61.4205729" rx="15.8876651" ry="4.98786515"></ellipse>
                <path d="M392.886579,69.9859773 C393.334804,72.6730184 392.435416,75.416909 390.527205,77.184052 C388.618994,78.951195 385.991862,79.4731193 383.635426,78.5532212 C381.278989,77.633323 379.551246,75.4113568 379.10302,72.7243156 L379.100569,72.7095412 C378.411381,68.5550029 381.354769,67.0848643 385.161664,66.3327724 C388.96856,65.5806805 392.197442,65.831439 392.886579,69.9859773 Z" id="Path" fill="#FFFFFF"></path>
                <ellipse id="Oval" fill="#2F2E41" transform="translate(628.195355, 223.417448) rotate(-39.938370) translate(-628.195355, -223.417448) " cx="628.195355" cy="223.417448" rx="5.11313199" ry="16.2865915"></ellipse>
                <ellipse id="Oval" fill="#2F2E41" transform="translate(593.543644, 217.762417) rotate(-71.565040) translate(-593.543644, -217.762417) " cx="593.543644" cy="217.762417" rx="32.5699473" ry="32.5781439"></ellipse>
                <rect id="Rectangle" fill="#2F2E41" x="597" y="243" width="10" height="17"></rect>
                <rect id="Rectangle" fill="#2F2E41" x="577" y="243" width="10" height="17"></rect>
                <ellipse id="Oval" fill="#2F2E41" cx="598.5" cy="262" rx="8.5" ry="3"></ellipse>
                <ellipse id="Oval" fill="#2F2E41" cx="578.5" cy="260" rx="8.5" ry="3"></ellipse>
                <path d="M583.471513,176.536872 C586.448671,164.567948 599.590358,157.52449 612.824266,160.804874 C626.058174,164.085257 634.372975,176.447308 631.395817,188.41624 C628.41866,200.385173 618.541396,200.423807 605.307473,197.143369 C592.07355,193.862932 580.494348,188.50582 583.471513,176.536872 Z" id="Path" fill="#CCCCCC"></path>
                <ellipse id="Oval" fill="#2F2E41" transform="translate(556.848595, 202.650184) rotate(-64.625740) translate(-556.848595, -202.650184) " cx="556.848595" cy="202.650184" rx="5.11248162" ry="16.2886624"></ellipse>
                <circle id="Oval" fill="#FFFFFF" cx="587.5" cy="210.5" r="10.5"></circle>
                <circle id="Oval" fill="#3F3D56" cx="583.5" cy="206.5" r="3.5"></circle>
                <path d="M595.886469,233.987339 C596.576134,238.140924 594.052567,242.118997 590.248395,242.875025 C586.444223,243.631053 582.798407,240.879063 582.103025,236.726615 L582.100566,236.711835 C581.411391,232.555876 584.354749,231.085234 588.161615,230.332885 C591.968481,229.580536 595.197338,229.831388 595.886469,233.987339 Z" id="Path" fill="#FFFFFF"></path>
                <path d="M548.947303,273 L538.052697,273 C535.263472,272.996831 533.003142,270.716911 533,267.903513 L533,71.0964872 C533.003142,68.2830887 535.263472,66.0031689 538.052697,66 L548.947303,66 C551.736528,66.0031689 553.996858,68.2830887 554,71.0964872 L554,267.903513 C553.996858,270.716911 551.736528,272.996831 548.947303,273 Z" id="Path" fill="#247299"></path>
                <circle id="Oval" fill="#2F2E41" cx="86" cy="217" r="33"></circle>
                <rect id="Rectangle" fill="#2F2E41" x="71" y="243" width="10" height="17"></rect>
                <rect id="Rectangle" fill="#2F2E41" x="91" y="243" width="10" height="17"></rect>
                <ellipse id="Oval" fill="#2F2E41" cx="80.5" cy="262" rx="8.5" ry="3"></ellipse>
                <ellipse id="Oval" fill="#2F2E41" cx="100.5" cy="260" rx="8.5" ry="3"></ellipse>
                <circle id="Oval" fill="#FFFFFF" cx="87.5" cy="210.5" r="11.5"></circle>
                <circle id="Oval" fill="#3F3D56" cx="87.5" cy="209.5" r="3.5"></circle>
                <path d="M54.4912153,186.90457 C51.8083262,175.26533 60.3844706,163.504382 73.6466212,160.635727 C86.9087717,157.767072 99.8347086,164.877082 102.517598,176.516329 C105.200487,188.155577 96.4112068,192.448328 83.1491025,195.316938 C69.8869982,198.185548 57.1741121,198.543825 54.4912153,186.90457 Z" id="Path" fill="#CCCCCC"></path>
                <ellipse id="Oval" fill="#2F2E41" transform="translate(105.325029, 99.583947) rotate(-69.082170) translate(-105.325029, -99.583947) " cx="105.325029" cy="99.5839467" rx="16.2851333" ry="5.11358942"></ellipse>
                <ellipse id="Oval" fill="#2F2E41" transform="translate(75.212025, 124.178210) rotate(-80.782520) translate(-75.212025, -124.178210) " cx="75.2120251" cy="124.17821" rx="32.5692007" ry="32.5789207"></ellipse>
                <rect id="Rectangle" fill="#2F2E41" x="60" y="150" width="10" height="17"></rect>
                <rect id="Rectangle" fill="#2F2E41" x="80" y="150" width="10" height="17"></rect>
                <ellipse id="Oval" fill="#2F2E41" cx="68.5" cy="167" rx="8.5" ry="3"></ellipse>
                <ellipse id="Oval" fill="#2F2E41" cx="88.5" cy="167" rx="8.5" ry="3"></ellipse>
                <ellipse id="Oval" fill="#FFFFFF" transform="translate(76.036848, 115.932871) rotate(-1.683230) translate(-76.036848, -115.932871) " cx="76.0368477" cy="115.932871" rx="11.134654" ry="11.1311583"></ellipse>
                <circle id="Oval" fill="#3F3D56" cx="76.5" cy="116.5" r="3.5"></circle>
                <path d="M43.4912152,93.9045712 C40.8083249,82.2653262 49.3844811,70.5043735 62.6465993,67.6357251 C75.9087176,64.7670766 88.8347069,71.8770816 91.5175972,83.5162817 C94.2004876,95.1554818 85.4112111,99.4482418 72.1490928,102.316898 C58.8869746,105.185554 46.1741056,105.543861 43.4912152,93.9045712 Z" id="Path" fill="#247299"></path>
                <ellipse id="Oval" fill="#2F2E41" transform="translate(38.517057, 109.066061) rotate(-64.625740) translate(-38.517057, -109.066061) " cx="38.5170574" cy="109.066061" rx="5.11248162" ry="16.2886624"></ellipse>
                <path d="M60,136.824402 C60,139.909006 67.9817839,146 76.8387321,146 C85.6956803,146 94,137.31585 94,134.23129 C94,131.14673 85.6956215,134.829711 76.8387321,134.829711 C67.9818428,134.829711 60,133.739798 60,136.824402 Z" id="Path" fill="#FFFFFF"></path>
                <path d="M392.126242,176.194075 L381.443897,178.849308 C378.708245,179.526013 375.941189,177.860105 375.258472,175.12537 L347.150658,61.9927342 C346.474106,59.2564686 348.139639,56.4887918 350.873758,55.805925 L361.556103,53.1506923 C364.291755,52.4739872 367.058811,54.1398946 367.741528,56.8746299 L395.849342,170.007266 C396.525894,172.743531 394.860361,175.511208 392.126242,176.194075 Z" id="Path" fill="#247299"></path>
                <path d="M137.816698,116.242311 L113.192757,120.949892 C112.384666,121.106991 111.547764,120.89022 110.924618,120.362409 C110.288749,119.828212 109.940052,119.036594 109.9796,118.217016 C110.399659,108.32767 108.436975,98.4803471 104.250336,89.4717288 C103.899143,88.7268236 103.918345,87.8649179 104.302378,87.1357243 C104.677109,86.4171379 105.369339,85.9080289 106.178432,85.755958 L130.802373,81.0483845 C132.102244,80.8025368 133.392991,81.5134575 133.853727,82.7290168 C137.496119,92.6391671 139.568454,103.036916 139.998758,113.56115 C140.038605,114.857194 139.11557,115.991355 137.816698,116.242311 L137.816698,116.242311 Z" id="Path" fill="#FF6584"></path>
                <path d="M33.8166978,139.242311 L9.19275653,143.949892 C8.38466598,144.106991 7.54776433,143.89022 6.92461752,143.362409 C6.28874916,142.828212 5.94005173,142.036594 5.97959974,141.217016 C6.39965915,131.32767 4.43697537,121.480347 0.250336205,112.471729 C-0.100857042,111.726824 -0.0816553796,110.864918 0.302378051,110.135724 C0.677108636,109.417138 1.36933906,108.908029 2.17843223,108.755958 L26.8023735,104.048384 C28.1022444,103.802537 29.3929908,104.513457 29.8537267,105.729017 C33.4961194,115.639167 35.5684538,126.036916 35.998758,136.56115 C36.038605,137.857194 35.1155697,138.991355 33.8166978,139.242311 Z" id="Path" fill="#CCCCCC"></path>
                <circle id="Oval" fill="#E6E6E6" cx="190.5" cy="55.5" r="8.5"></circle>
                <circle id="Oval" fill="#E6E6E6" cx="190.5" cy="88.5" r="8.5"></circle>
                <circle id="Oval" fill="#E6E6E6" cx="190.5" cy="121.5" r="8.5"></circle>
                <circle id="Oval" fill="#E6E6E6" cx="190.5" cy="154.5" r="8.5"></circle>
                <circle id="Oval" fill="#E6E6E6" cx="190.5" cy="187.5" r="8.5"></circle>
                <circle id="Oval" fill="#E6E6E6" cx="190.5" cy="220.5" r="8.5"></circle>
            </g>
        </g>
    </g>
</svg>